<svg width="199" height="40" viewBox="0 0 199 40" fill="none" xmlns="http://www.w3.org/2000/svg">
<path d="M0.745605 19.5554C0.745605 8.78588 9.47605 0.0554352 20.2456 0.0554352H179.246C190.015 0.0554352 198.746 8.78588 198.746 19.5554C198.746 30.325 190.015 39.0554 179.246 39.0554H20.2456C9.47606 39.0554 0.745605 30.325 0.745605 19.5554Z" fill="#6FB9FF"/>
<path fill-rule="evenodd" clip-rule="evenodd" d="M29.2454 8.09709C22.9173 8.09709 17.7871 13.2273 17.7871 19.5554C17.7871 25.8835 22.9173 31.0138 29.2454 31.0138C35.5736 31.0138 40.7038 25.8835 40.7038 19.5554C40.7038 13.2273 35.5736 8.09709 29.2454 8.09709ZM30.2871 23.7221C30.2871 23.9984 30.1774 24.2633 29.982 24.4587C29.7867 24.654 29.5217 24.7638 29.2454 24.7638C28.9692 24.7638 28.7042 24.654 28.5089 24.4587C28.3135 24.2633 28.2038 23.9984 28.2038 23.7221V20.5971H25.0788C24.8025 20.5971 24.5376 20.4873 24.3422 20.292C24.1469 20.0966 24.0371 19.8317 24.0371 19.5554C24.0371 19.2792 24.1469 19.0142 24.3422 18.8189C24.5376 18.6235 24.8025 18.5138 25.0788 18.5138H28.2038V15.3888C28.2038 15.1125 28.3135 14.8475 28.5089 14.6522C28.7042 14.4568 28.9692 14.3471 29.2454 14.3471C29.5217 14.3471 29.7867 14.4568 29.982 14.6522C30.1774 14.8475 30.2871 15.1125 30.2871 15.3888V18.5138H33.4121C33.6884 18.5138 33.9533 18.6235 34.1487 18.8189C34.344 19.0142 34.4538 19.2792 34.4538 19.5554C34.4538 19.8317 34.344 20.0966 34.1487 20.292C33.9533 20.4873 33.6884 20.5971 33.4121 20.5971H30.2871V23.7221Z" fill="black"/>
<path d="M59.4896 15.9434C59.6176 15.6554 59.7856 15.4474 59.9936 15.3194C60.2176 15.1754 60.4576 15.1034 60.7136 15.1034C61.0816 15.1034 61.4096 15.2314 61.6976 15.4874C62.0016 15.7274 62.1536 16.0314 62.1536 16.3994C62.1536 16.5754 62.1056 16.7594 62.0096 16.9514L55.4576 30.6794C55.1856 31.2234 54.7616 31.4954 54.1856 31.4954C53.8176 31.4954 53.4896 31.3754 53.2016 31.1354C52.9296 30.9114 52.7936 30.6234 52.7936 30.2714C52.7936 30.0954 52.8416 29.8954 52.9376 29.6714L54.5696 26.2394L50.1056 16.9514C50.0256 16.7914 49.9856 16.6074 49.9856 16.3994C49.9856 16.0314 50.1376 15.7194 50.4416 15.4634C50.7616 15.2074 51.1216 15.0794 51.5216 15.0794C51.7936 15.0794 52.0416 15.1514 52.2656 15.2954C52.4896 15.4234 52.6656 15.6314 52.7936 15.9194L56.1536 23.3354L59.4896 15.9434ZM69.4389 27.2474C68.2709 27.2474 67.2389 26.9994 66.3429 26.5034C65.4629 26.0074 64.7829 25.3034 64.3029 24.3914C63.8229 23.4794 63.5829 22.4154 63.5829 21.1994C63.5829 19.9834 63.8309 18.9114 64.3269 17.9834C64.8389 17.0394 65.5509 16.3114 66.4629 15.7994C67.3749 15.2874 68.4229 15.0314 69.6069 15.0314C70.2309 15.0314 70.8549 15.1194 71.4789 15.2954C72.1189 15.4714 72.6789 15.7114 73.1589 16.0154C73.6709 16.3514 73.9269 16.7754 73.9269 17.2874C73.9269 17.6394 73.8389 17.9274 73.6629 18.1514C73.5029 18.3594 73.2869 18.4634 73.0149 18.4634C72.8389 18.4634 72.6549 18.4234 72.4629 18.3434C72.2709 18.2634 72.0789 18.1674 71.8869 18.0554C71.5349 17.8474 71.1989 17.6874 70.8789 17.5754C70.5589 17.4474 70.1909 17.3834 69.7749 17.3834C68.7829 17.3834 68.0149 17.7114 67.4709 18.3674C66.9429 19.0074 66.6789 19.9354 66.6789 21.1514C66.6789 22.3514 66.9429 23.2794 67.4709 23.9354C68.0149 24.5754 68.7829 24.8954 69.7749 24.8954C70.1749 24.8954 70.5269 24.8394 70.8309 24.7274C71.1509 24.5994 71.5029 24.4314 71.8869 24.2234C72.1269 24.0794 72.3349 23.9754 72.5109 23.9114C72.6869 23.8314 72.8629 23.7914 73.0389 23.7914C73.2949 23.7914 73.5109 23.9034 73.6869 24.1274C73.8629 24.3514 73.9509 24.6314 73.9509 24.9674C73.9509 25.2394 73.8869 25.4794 73.7589 25.6874C73.6469 25.8794 73.4549 26.0554 73.1829 26.2154C72.6869 26.5354 72.1109 26.7914 71.4549 26.9834C70.7989 27.1594 70.1269 27.2474 69.4389 27.2474ZM80.6057 27.1994C80.1417 27.1994 79.7737 27.0714 79.5017 26.8154C79.2297 26.5594 79.0937 26.2154 79.0937 25.7834V17.5754H76.3337C75.9817 17.5754 75.6937 17.4714 75.4697 17.2634C75.2617 17.0554 75.1577 16.7834 75.1577 16.4474C75.1577 16.1114 75.2617 15.8394 75.4697 15.6314C75.6937 15.4234 75.9817 15.3194 76.3337 15.3194H84.8537C85.2057 15.3194 85.4857 15.4234 85.6937 15.6314C85.9177 15.8394 86.0297 16.1114 86.0297 16.4474C86.0297 16.7834 85.9177 17.0554 85.6937 17.2634C85.4857 17.4714 85.2057 17.5754 84.8537 17.5754H82.0937V25.7834C82.0937 26.2154 81.9577 26.5594 81.6857 26.8154C81.4137 27.0714 81.0537 27.1994 80.6057 27.1994ZM95.0912 15.0314C96.0992 15.0314 96.9952 15.2874 97.7792 15.7994C98.5792 16.3114 99.1952 17.0394 99.6272 17.9834C100.075 18.9114 100.299 19.9834 100.299 21.1994C100.299 22.4154 100.075 23.4794 99.6272 24.3914C99.1952 25.3034 98.5872 26.0074 97.8032 26.5034C97.0192 26.9994 96.1152 27.2474 95.0912 27.2474C94.2592 27.2474 93.5152 27.0714 92.8592 26.7194C92.2032 26.3674 91.6992 25.8794 91.3472 25.2554V30.1514C91.3472 30.5674 91.2112 30.8954 90.9392 31.1354C90.6672 31.3754 90.3072 31.4954 89.8592 31.4954C89.4112 31.4954 89.0432 31.3674 88.7552 31.1114C88.4832 30.8554 88.3472 30.5194 88.3472 30.1034V16.4954C88.3472 16.0634 88.4752 15.7194 88.7312 15.4634C89.0032 15.2074 89.3632 15.0794 89.8112 15.0794C90.2592 15.0794 90.6192 15.2074 90.8912 15.4634C91.1632 15.7194 91.2992 16.0634 91.2992 16.4954V17.0954C91.6512 16.4394 92.1552 15.9354 92.8112 15.5834C93.4832 15.2154 94.2432 15.0314 95.0912 15.0314ZM94.2992 24.9194C95.2432 24.9194 95.9792 24.5994 96.5072 23.9594C97.0352 23.3034 97.2992 22.3834 97.2992 21.1994C97.2992 19.9834 97.0352 19.0394 96.5072 18.3674C95.9792 17.6954 95.2432 17.3594 94.2992 17.3594C93.3392 17.3594 92.5952 17.6874 92.0672 18.3434C91.5552 18.9994 91.2992 19.9354 91.2992 21.1514C91.2992 22.3514 91.5552 23.2794 92.0672 23.9354C92.5952 24.5914 93.3392 24.9194 94.2992 24.9194ZM108.593 27.2474C107.393 27.2474 106.337 26.9994 105.425 26.5034C104.529 26.0074 103.833 25.2954 103.337 24.3674C102.841 23.4394 102.593 22.3594 102.593 21.1274C102.593 19.8954 102.841 18.8234 103.337 17.9114C103.833 16.9834 104.529 16.2714 105.425 15.7754C106.337 15.2794 107.393 15.0314 108.593 15.0314C109.793 15.0314 110.841 15.2794 111.737 15.7754C112.649 16.2714 113.345 16.9834 113.825 17.9114C114.321 18.8234 114.569 19.8954 114.569 21.1274C114.569 22.3594 114.321 23.4394 113.825 24.3674C113.345 25.2954 112.649 26.0074 111.737 26.5034C110.841 26.9994 109.793 27.2474 108.593 27.2474ZM108.569 24.9194C109.545 24.9194 110.289 24.5994 110.801 23.9594C111.313 23.3194 111.569 22.3754 111.569 21.1274C111.569 19.8954 111.313 18.9594 110.801 18.3194C110.289 17.6634 109.553 17.3354 108.593 17.3354C107.633 17.3354 106.889 17.6634 106.361 18.3194C105.849 18.9594 105.593 19.8954 105.593 21.1274C105.593 22.3754 105.849 23.3194 106.361 23.9594C106.873 24.5994 107.609 24.9194 108.569 24.9194ZM125.326 16.2314C125.646 15.7834 125.934 15.4794 126.19 15.3194C126.462 15.1594 126.83 15.0794 127.294 15.0794C127.758 15.0794 128.126 15.2074 128.398 15.4634C128.686 15.7194 128.83 16.0634 128.83 16.4954V25.7354C128.83 26.1674 128.694 26.5194 128.422 26.7914C128.166 27.0634 127.83 27.1994 127.414 27.1994C126.982 27.1994 126.63 27.0634 126.358 26.7914C126.102 26.5194 125.974 26.1674 125.974 25.7354V18.9674L120.886 26.0954C120.582 26.5274 120.286 26.8234 119.998 26.9834C119.726 27.1274 119.382 27.1994 118.966 27.1994C118.502 27.1994 118.134 27.0714 117.862 26.8154C117.59 26.5594 117.454 26.2074 117.454 25.7594V16.5194C117.454 16.0874 117.582 15.7434 117.838 15.4874C118.11 15.2154 118.462 15.0794 118.894 15.0794C119.31 15.0794 119.646 15.2154 119.902 15.4874C120.174 15.7434 120.31 16.0874 120.31 16.5194V23.2394L125.326 16.2314ZM123.07 13.0394C122.03 13.0394 121.15 12.8074 120.43 12.3434C119.726 11.8794 119.222 11.2394 118.918 10.4234C118.87 10.2794 118.846 10.1434 118.846 10.0154C118.846 9.75943 118.934 9.55143 119.11 9.39143C119.302 9.21543 119.518 9.12743 119.758 9.12743C120.11 9.12743 120.382 9.30343 120.574 9.65543C120.83 10.1514 121.174 10.5354 121.606 10.8074C122.054 11.0794 122.542 11.2154 123.07 11.2154C123.582 11.2154 124.054 11.0794 124.486 10.8074C124.918 10.5354 125.278 10.1514 125.566 9.65543C125.774 9.30343 126.054 9.12743 126.406 9.12743C126.646 9.12743 126.854 9.21543 127.03 9.39143C127.206 9.55143 127.294 9.75943 127.294 10.0154C127.294 10.1434 127.27 10.2794 127.222 10.4234C126.934 11.2394 126.43 11.8794 125.71 12.3434C124.99 12.8074 124.11 13.0394 123.07 13.0394ZM137.558 27.2474C136.39 27.2474 135.358 26.9994 134.462 26.5034C133.582 26.0074 132.902 25.3034 132.422 24.3914C131.942 23.4794 131.702 22.4154 131.702 21.1994C131.702 19.9834 131.95 18.9114 132.446 17.9834C132.958 17.0394 133.67 16.3114 134.582 15.7994C135.494 15.2874 136.542 15.0314 137.726 15.0314C138.35 15.0314 138.974 15.1194 139.598 15.2954C140.238 15.4714 140.798 15.7114 141.278 16.0154C141.79 16.3514 142.046 16.7754 142.046 17.2874C142.046 17.6394 141.958 17.9274 141.782 18.1514C141.622 18.3594 141.406 18.4634 141.134 18.4634C140.958 18.4634 140.774 18.4234 140.582 18.3434C140.39 18.2634 140.198 18.1674 140.006 18.0554C139.654 17.8474 139.318 17.6874 138.998 17.5754C138.678 17.4474 138.31 17.3834 137.894 17.3834C136.902 17.3834 136.134 17.7114 135.59 18.3674C135.062 19.0074 134.798 19.9354 134.798 21.1514C134.798 22.3514 135.062 23.2794 135.59 23.9354C136.134 24.5754 136.902 24.8954 137.894 24.8954C138.294 24.8954 138.646 24.8394 138.95 24.7274C139.27 24.5994 139.622 24.4314 140.006 24.2234C140.246 24.0794 140.454 23.9754 140.63 23.9114C140.806 23.8314 140.982 23.7914 141.158 23.7914C141.414 23.7914 141.63 23.9034 141.806 24.1274C141.982 24.3514 142.07 24.6314 142.07 24.9674C142.07 25.2394 142.006 25.4794 141.878 25.6874C141.766 25.8794 141.574 26.0554 141.302 26.2154C140.806 26.5354 140.23 26.7914 139.574 26.9834C138.918 27.1594 138.246 27.2474 137.558 27.2474ZM148.724 27.1994C148.26 27.1994 147.892 27.0714 147.62 26.8154C147.348 26.5594 147.212 26.2154 147.212 25.7834V17.5754H144.452C144.1 17.5754 143.812 17.4714 143.588 17.2634C143.38 17.0554 143.276 16.7834 143.276 16.4474C143.276 16.1114 143.38 15.8394 143.588 15.6314C143.812 15.4234 144.1 15.3194 144.452 15.3194H152.972C153.324 15.3194 153.604 15.4234 153.812 15.6314C154.036 15.8394 154.148 16.1114 154.148 16.4474C154.148 16.7834 154.036 17.0554 153.812 17.2634C153.604 17.4714 153.324 17.5754 152.972 17.5754H150.212V25.7834C150.212 26.2154 150.076 26.5594 149.804 26.8154C149.532 27.0714 149.172 27.1994 148.724 27.1994ZM157.906 27.0554C157.442 27.0714 157.074 26.9514 156.802 26.6954C156.53 26.4394 156.394 26.0874 156.394 25.6394V16.8314C156.378 16.3674 156.498 15.9994 156.754 15.7274C157.01 15.4554 157.362 15.3194 157.81 15.3194H162.25C163.578 15.3194 164.618 15.5834 165.37 16.1114C166.138 16.6394 166.522 17.3834 166.522 18.3434C166.522 18.9354 166.346 19.4714 165.994 19.9514C165.642 20.4314 165.138 20.7834 164.482 21.0074C165.234 21.1834 165.81 21.5034 166.21 21.9674C166.626 22.4314 166.834 23.0234 166.834 23.7434C166.834 24.6874 166.434 25.4794 165.634 26.1194C164.85 26.7434 163.746 27.0554 162.322 27.0554H157.906ZM161.746 20.1194C162.322 20.1194 162.77 19.9914 163.09 19.7354C163.41 19.4794 163.57 19.1274 163.57 18.6794C163.57 17.7834 162.954 17.3354 161.722 17.3354H159.37V20.1194H161.746ZM161.818 25.0394C163.162 25.0394 163.834 24.5354 163.834 23.5274C163.834 22.5194 163.162 22.0154 161.818 22.0154H159.37V25.0394H161.818ZM175.142 27.2474C173.942 27.2474 172.886 26.9994 171.974 26.5034C171.078 26.0074 170.382 25.2954 169.886 24.3674C169.39 23.4394 169.142 22.3594 169.142 21.1274C169.142 19.8954 169.39 18.8234 169.886 17.9114C170.382 16.9834 171.078 16.2714 171.974 15.7754C172.886 15.2794 173.942 15.0314 175.142 15.0314C176.342 15.0314 177.39 15.2794 178.286 15.7754C179.198 16.2714 179.894 16.9834 180.374 17.9114C180.87 18.8234 181.118 19.8954 181.118 21.1274C181.118 22.3594 180.87 23.4394 180.374 24.3674C179.894 25.2954 179.198 26.0074 178.286 26.5034C177.39 26.9994 176.342 27.2474 175.142 27.2474ZM175.118 24.9194C176.094 24.9194 176.838 24.5994 177.35 23.9594C177.862 23.3194 178.118 22.3754 178.118 21.1274C178.118 19.8954 177.862 18.9594 177.35 18.3194C176.838 17.6634 176.102 17.3354 175.142 17.3354C174.182 17.3354 173.438 17.6634 172.91 18.3194C172.398 18.9594 172.142 19.8954 172.142 21.1274C172.142 22.3754 172.398 23.3194 172.91 23.9594C173.422 24.5994 174.158 24.9194 175.118 24.9194Z" fill="black"/>
</svg>
