<svg width="121" height="40" viewBox="0 0 121 40" fill="none" xmlns="http://www.w3.org/2000/svg">
<path d="M0 19.5554C0 8.78588 8.73045 0.0554352 19.5 0.0554352H101.5C112.27 0.0554352 121 8.78588 121 19.5554C121 30.325 112.27 39.0554 101.5 39.0554H19.5C8.73045 39.0554 0 30.325 0 19.5554Z" fill="#6FB9FF"/>
<path fill-rule="evenodd" clip-rule="evenodd" d="M28.5 8.09709C22.1719 8.09709 17.0417 13.2273 17.0417 19.5554C17.0417 25.8835 22.1719 31.0138 28.5 31.0138C34.8281 31.0138 39.9584 25.8835 39.9584 19.5554C39.9584 13.2273 34.8281 8.09709 28.5 8.09709ZM29.5417 23.7221C29.5417 23.9984 29.4319 24.2633 29.2366 24.4587C29.0412 24.654 28.7763 24.7638 28.5 24.7638C28.2238 24.7638 27.9588 24.654 27.7635 24.4587C27.5681 24.2633 27.4584 23.9984 27.4584 23.7221V20.5971H24.3334C24.0571 20.5971 23.7921 20.4873 23.5968 20.292C23.4014 20.0966 23.2917 19.8317 23.2917 19.5554C23.2917 19.2792 23.4014 19.0142 23.5968 18.8189C23.7921 18.6235 24.0571 18.5138 24.3334 18.5138H27.4584V15.3888C27.4584 15.1125 27.5681 14.8475 27.7635 14.6522C27.9588 14.4568 28.2238 14.3471 28.5 14.3471C28.7763 14.3471 29.0412 14.4568 29.2366 14.6522C29.4319 14.8475 29.5417 15.1125 29.5417 15.3888V18.5138H32.6667C32.943 18.5138 33.2079 18.6235 33.4033 18.8189C33.5986 19.0142 33.7084 19.2792 33.7084 19.5554C33.7084 19.8317 33.5986 20.0966 33.4033 20.292C33.2079 20.4873 32.943 20.5971 32.6667 20.5971H29.5417V23.7221Z" fill="black"/>
<path d="M58.36 16.2314C58.68 15.7834 58.968 15.4794 59.224 15.3194C59.496 15.1594 59.864 15.0794 60.328 15.0794C60.792 15.0794 61.16 15.2074 61.432 15.4634C61.72 15.7194 61.864 16.0634 61.864 16.4954V25.7354C61.864 26.1674 61.728 26.5194 61.456 26.7914C61.2 27.0634 60.864 27.1994 60.448 27.1994C60.016 27.1994 59.664 27.0634 59.392 26.7914C59.136 26.5194 59.008 26.1674 59.008 25.7354V18.9674L53.92 26.0954C53.616 26.5274 53.32 26.8234 53.032 26.9834C52.76 27.1274 52.416 27.1994 52 27.1994C51.536 27.1994 51.168 27.0714 50.896 26.8154C50.624 26.5594 50.488 26.2074 50.488 25.7594V16.5194C50.488 16.0874 50.616 15.7434 50.872 15.4874C51.144 15.2154 51.496 15.0794 51.928 15.0794C52.344 15.0794 52.68 15.2154 52.936 15.4874C53.208 15.7434 53.344 16.0874 53.344 16.5194V23.2394L58.36 16.2314ZM65.4317 30.2474C65.0157 30.2474 64.6797 30.1194 64.4237 29.8634C64.1837 29.6234 64.0637 29.2794 64.0637 28.8314V26.3114C64.0477 25.8474 64.1677 25.4794 64.4237 25.2074C64.6797 24.9354 65.0157 24.7994 65.4317 24.7994H65.6957C66.1597 23.9674 66.4797 23.0314 66.6557 21.9914C66.8477 20.9514 66.9437 19.7194 66.9437 18.2954V16.8314C66.9277 16.3674 67.0477 15.9994 67.3037 15.7274C67.5597 15.4554 67.9117 15.3194 68.3597 15.3194H74.2878C74.7518 15.3034 75.1198 15.4234 75.3918 15.6794C75.6637 15.9354 75.7997 16.2874 75.7997 16.7354V24.7994H76.1838C76.6478 24.7834 77.0158 24.9034 77.2878 25.1594C77.5598 25.4154 77.6957 25.7674 77.6957 26.2154V28.8314C77.6957 29.2794 77.5677 29.6234 77.3118 29.8634C77.0718 30.1194 76.7438 30.2474 76.3278 30.2474C75.8958 30.2474 75.5598 30.1194 75.3198 29.8634C75.0798 29.6234 74.9597 29.2794 74.9597 28.8314V27.0554H66.8237V28.8314C66.8237 29.2794 66.6957 29.6234 66.4397 29.8634C66.1997 30.1194 65.8637 30.2474 65.4317 30.2474ZM72.8238 17.5754H69.5357V18.2954C69.5357 19.8154 69.4157 21.1354 69.1757 22.2554C68.9517 23.3754 68.6317 24.2234 68.2157 24.7994H72.8238V17.5754ZM89.2142 23.8394C89.4862 23.8394 89.7022 23.9434 89.8622 24.1514C90.0382 24.3594 90.1262 24.6394 90.1262 24.9914C90.1262 25.4874 89.8302 25.9034 89.2382 26.2394C88.6942 26.5434 88.0782 26.7914 87.3902 26.9834C86.7022 27.1594 86.0462 27.2474 85.4222 27.2474C83.5342 27.2474 82.0382 26.7034 80.9342 25.6154C79.8302 24.5274 79.2782 23.0394 79.2782 21.1514C79.2782 19.9514 79.5182 18.8874 79.9982 17.9594C80.4782 17.0314 81.1502 16.3114 82.0142 15.7994C82.8942 15.2874 83.8862 15.0314 84.9902 15.0314C86.0462 15.0314 86.9662 15.2634 87.7502 15.7274C88.5342 16.1914 89.1422 16.8474 89.5742 17.6954C90.0062 18.5434 90.2222 19.5434 90.2222 20.6954C90.2222 21.3834 89.9182 21.7274 89.3102 21.7274H82.2302C82.3262 22.8314 82.6382 23.6474 83.1662 24.1754C83.6942 24.6874 84.4622 24.9434 85.4702 24.9434C85.9822 24.9434 86.4302 24.8794 86.8142 24.7514C87.2142 24.6234 87.6622 24.4474 88.1582 24.2234C88.6382 23.9674 88.9902 23.8394 89.2142 23.8394ZM85.0622 17.1434C84.2462 17.1434 83.5902 17.3994 83.0942 17.9114C82.6142 18.4234 82.3262 19.1594 82.2302 20.1194H87.6542C87.6222 19.1434 87.3822 18.4074 86.9342 17.9114C86.4862 17.3994 85.8622 17.1434 85.0622 17.1434ZM101.7 27.1994C101.236 27.1994 100.868 27.0714 100.596 26.8154C100.34 26.5594 100.212 26.2074 100.212 25.7594V23.0954H99.3962C98.3402 23.0954 97.5322 23.5194 96.9722 24.3674L95.3402 26.6714C95.0042 27.1514 94.5722 27.3914 94.0442 27.3914C93.6762 27.3914 93.3482 27.2634 93.0602 27.0074C92.7882 26.7514 92.6522 26.4394 92.6522 26.0714C92.6522 25.7514 92.7402 25.4634 92.9162 25.2074L93.4442 24.3914C93.8282 23.7994 94.2442 23.3034 94.6922 22.9034C95.1562 22.5034 95.6202 22.2474 96.0842 22.1354C95.0922 21.9114 94.3482 21.5274 93.8522 20.9834C93.3722 20.4234 93.1322 19.7354 93.1322 18.9194C93.1322 17.7834 93.5002 16.9034 94.2362 16.2794C94.9882 15.6394 96.0202 15.3194 97.3322 15.3194H101.7C102.148 15.3034 102.508 15.4234 102.78 15.6794C103.052 15.9354 103.188 16.2794 103.188 16.7114V25.7594C103.188 26.2074 103.052 26.5594 102.78 26.8154C102.524 27.0714 102.164 27.1994 101.7 27.1994ZM100.212 17.4074H98.0522C97.3642 17.4074 96.8362 17.5514 96.4682 17.8394C96.1162 18.1114 95.9402 18.5594 95.9402 19.1834C95.9402 19.8394 96.1402 20.3114 96.5402 20.5994C96.9562 20.8874 97.4682 21.0314 98.0762 21.0314H100.212V17.4074Z" fill="black"/>
</svg>
