<svg width="20" height="19" viewBox="0 0 20 19" fill="none" xmlns="http://www.w3.org/2000/svg">
<path fill-rule="evenodd" clip-rule="evenodd" d="M5.78125 2.40234C3.66693 2.40234 2 4.19946 2 6.61177C2 8.13776 2.70059 9.4443 4.15184 10.9917C5.1686 12.0758 6.46091 13.1869 8.00838 14.5173C8.63134 15.0529 9.29565 15.624 9.99998 16.2433C10.7048 15.6236 11.3695 15.0521 11.9927 14.5163C13.5411 13.185 14.8334 12.0739 15.8499 10.99C17.3004 9.44327 18 8.13773 18 6.61177C18 4.19982 16.3333 2.40234 14.2188 2.40234C12.8357 2.40234 11.732 3.21178 10.9661 4.59717C10.5464 5.3562 9.45361 5.35622 9.03394 4.59717C8.26792 3.2117 7.16428 2.40234 5.78125 2.40234ZM0 6.61177C0 3.2987 2.36901 0.402344 5.78125 0.402344C7.57797 0.402344 8.98912 1.24883 10 2.47138C11.0108 1.24887 12.422 0.402344 14.2188 0.402344C17.6314 0.402344 20 3.29927 20 6.61177C20 8.87095 18.9142 10.6461 17.3088 12.3581C16.2163 13.5231 14.7942 14.7461 13.195 16.1214C12.4962 16.7223 11.7636 17.3523 11.01 18.0192L11.0099 18.0193C10.4327 18.53 9.56732 18.5301 8.99009 18.0193L8.99001 18.0193C8.23693 17.3528 7.50471 16.7232 6.80614 16.1224C5.2079 14.748 3.78579 13.525 2.69302 12.3599C1.08719 10.6476 0 8.87138 0 6.61177Z" fill="#FF1C1C"/>
</svg>
