<svg width="22" height="24" viewBox="0 0 22 24" fill="none" xmlns="http://www.w3.org/2000/svg">
<path d="M20.2862 17.6037C20.135 17.2376 19.9334 16.8959 19.7066 16.5786C18.5472 14.9189 16.7579 13.8206 14.7416 13.5521C14.4896 13.5277 14.2124 13.5765 14.0107 13.7229C12.9522 14.4796 11.6921 14.8701 10.3815 14.8701C9.07093 14.8701 7.81081 14.4796 6.75228 13.7229C6.55064 13.5765 6.2734 13.5033 6.0214 13.5521C4.00516 13.8206 2.19057 14.9189 1.05645 16.5786C0.829627 16.8959 0.627984 17.262 0.476801 17.6037C0.401209 17.7502 0.42639 17.921 0.501982 18.0675C0.703624 18.4091 0.95563 18.7509 1.18245 19.0437C1.53528 19.5075 1.91334 19.9224 2.3418 20.3129C2.69463 20.6546 3.09787 20.9719 3.50115 21.2892C5.49216 22.7292 7.88645 23.4858 10.3563 23.4858C12.8262 23.4858 15.2205 22.7292 17.2115 21.2892C17.6147 20.9963 18.018 20.6546 18.3709 20.3129C18.7741 19.9224 19.1773 19.5075 19.5302 19.0437C19.7822 18.7264 20.0091 18.4091 20.2107 18.0675C20.3366 17.921 20.3618 17.7501 20.2862 17.6037Z" fill="black"/>
<path d="M10.3799 1.59846C7.0955 1.59846 4.41064 4.28332 4.41064 7.56774C4.41064 10.8522 7.0955 13.537 10.3799 13.537C13.6643 13.537 16.3492 10.8522 16.3492 7.56774C16.3492 4.28332 13.6643 1.59846 10.3799 1.59846Z" fill="black"/>
</svg>
