<svg width="64" height="29" viewBox="0 0 64 29" fill="none" xmlns="http://www.w3.org/2000/svg">
<path fill-rule="evenodd" clip-rule="evenodd" d="M6.87598 28.1654C14.471 28.1654 20.628 21.8681 20.628 14.1793C20.628 6.4906 14.471 0.132324 6.87598 0.132324L6.87598 5.42158C11.6229 5.42158 15.471 9.37387 15.471 14.1793C15.471 18.9848 11.6229 22.8804 6.87598 22.8804L6.87598 28.1654Z" fill="black"/>
<path d="M0 5.42158H7.1405V0.132324H0V5.42158Z" fill="black"/>
<path d="M25.9178 0.132324L25.9178 28.1654L31.207 28.1654L31.207 0.132324L25.9178 0.132324Z" fill="black"/>
<path d="M52.8928 11.769V0.380255C51.1661 -0.126717 49.3302 -0.126717 47.6035 0.380255V11.769H52.8928Z" fill="#33FF00"/>
<path fill-rule="evenodd" clip-rule="evenodd" d="M45.4878 0.995118C40.2389 2.96911 36.4961 8.11366 36.4961 14.1492C36.4961 21.8903 42.6531 28.1657 50.2482 28.1657C57.8432 28.1657 64.0002 21.8903 64.0002 14.1492C64.0002 8.11365 60.2575 2.96911 55.0085 0.995117V6.85403C57.3202 8.42419 58.8432 11.1054 58.8432 14.1492C58.8432 18.9874 54.9951 22.9095 50.2482 22.9095C45.5013 22.9095 41.6531 18.9874 41.6531 14.1492C41.6531 11.1054 43.1761 8.4242 45.4878 6.85404V0.995118Z" fill="black"/>
<path d="M0 28.1657H7.1405V22.8765H0V28.1657Z" fill="black"/>
</svg>
