<svg width="23" height="23" viewBox="0 0 23 23" fill="none" xmlns="http://www.w3.org/2000/svg">
<path d="M9.49589 5.7844e-07C8.12155 0.000735159 6.76654 0.323882 5.53978 0.943467C4.31302 1.56305 3.24872 2.4618 2.43243 3.56746C1.61614 4.67313 1.07062 5.95487 0.839725 7.30968C0.608827 8.6645 0.698988 10.0546 1.10296 11.3682C1.50693 12.6818 2.21345 13.8824 3.16573 14.8733C4.11801 15.8643 5.28949 16.618 6.586 17.074C7.88252 17.5299 9.26792 17.6753 10.6308 17.4985C11.9938 17.3217 13.2962 16.8276 14.4335 16.0559L19.8631 21.4811C20.0139 21.643 20.1957 21.7728 20.3978 21.8628C20.5999 21.9529 20.818 22.0013 21.0392 22.0052C21.2604 22.0091 21.4801 21.9684 21.6852 21.8856C21.8903 21.8027 22.0767 21.6794 22.2331 21.523C22.3895 21.3665 22.5129 21.1802 22.5957 20.9751C22.6786 20.77 22.7192 20.5503 22.7153 20.3291C22.7114 20.1079 22.663 19.8897 22.573 19.6877C22.483 19.4856 22.3531 19.3037 22.1913 19.1529L16.7661 13.7233C17.6636 12.4024 18.1841 10.8617 18.2716 9.26706C18.3591 7.67241 18.0103 6.08408 17.2627 4.67283C16.515 3.26159 15.3969 2.08082 14.0284 1.2575C12.6599 0.434168 11.0929 -0.000578851 9.49589 5.7844e-07ZM4.0048 8.78574C4.0048 7.32942 4.58333 5.93274 5.61311 4.90296C6.64288 3.87318 8.03956 3.29465 9.49589 3.29465C10.9522 3.29465 12.3489 3.87318 13.3787 4.90296C14.4085 5.93274 14.987 7.32942 14.987 8.78574C14.987 10.2421 14.4085 11.6388 13.3787 12.6685C12.3489 13.6983 10.9522 14.2768 9.49589 14.2768C8.03956 14.2768 6.64288 13.6983 5.61311 12.6685C4.58333 11.6388 4.0048 10.2421 4.0048 8.78574Z" fill="black"/>
</svg>
