<svg width="19" height="19" viewBox="0 0 19 19" fill="none" xmlns="http://www.w3.org/2000/svg">
<g clip-path="url(#clip0)">
<path d="M9.69727 18.0157C14.6678 18.0157 18.6973 13.9863 18.6973 9.01575C18.6973 4.04518 14.6678 0.0157471 9.69727 0.0157471C4.7267 0.0157471 0.697266 4.04518 0.697266 9.01575C0.697266 13.9863 4.7267 18.0157 9.69727 18.0157Z" fill="#FFCC4D"/>
<path d="M9.69727 10.5157C7.88577 10.5157 6.68377 10.3047 5.19727 10.0157C4.85777 9.95022 4.19727 10.0157 4.19727 11.0157C4.19727 13.0157 6.49477 15.5157 9.69727 15.5157C12.8993 15.5157 15.1973 13.0157 15.1973 11.0157C15.1973 10.0157 14.5368 9.94972 14.1973 10.0157C12.7108 10.3047 11.5088 10.5157 9.69727 10.5157Z" fill="#664500"/>
<path d="M5.19727 11.0157C5.19727 11.0157 6.69727 11.5157 9.69727 11.5157C12.6973 11.5157 14.1973 11.0157 14.1973 11.0157C14.1973 11.0157 13.1973 13.0157 9.69727 13.0157C6.19727 13.0157 5.19727 11.0157 5.19727 11.0157Z" fill="white"/>
<path d="M6.69727 8.51575C7.38762 8.51575 7.94727 7.73225 7.94727 6.76575C7.94727 5.79925 7.38762 5.01575 6.69727 5.01575C6.00691 5.01575 5.44727 5.79925 5.44727 6.76575C5.44727 7.73225 6.00691 8.51575 6.69727 8.51575Z" fill="#664500"/>
<path d="M12.6973 8.51575C13.3876 8.51575 13.9473 7.73225 13.9473 6.76575C13.9473 5.79925 13.3876 5.01575 12.6973 5.01575C12.0069 5.01575 11.4473 5.79925 11.4473 6.76575C11.4473 7.73225 12.0069 8.51575 12.6973 8.51575Z" fill="#664500"/>
</g>
<defs>
<clipPath id="clip0">
<rect width="18" height="18" fill="white" transform="translate(0.697266 0.0157471)"/>
</clipPath>
</defs>
</svg>
