<svg width="930" height="434" viewBox="0 0 930 434" fill="none" xmlns="http://www.w3.org/2000/svg">
<rect width="405" height="188" rx="37" fill="#C6E4ED"/>
<rect x="107" y="246" width="405" height="188" rx="37" fill="#C6E4ED"/>
<rect x="476" width="405" height="188" rx="37" fill="#C6E4ED"/>
<rect x="583" y="246" width="405" height="188" rx="37" fill="#C6E4ED"/>
<path d="M92.7578 50L98.75 50C102.305 50 104.344 48.0156 104.344 45.1484C104.344 42.2891 102.305 40.4531 98.75 40.4531L95.1719 40.4531L95.1719 36.0781L102.734 36.0781L102.734 34L92.7578 34L92.7578 50ZM95.1719 47.9687L95.1719 42.4844L98.75 42.4844C100.813 42.4844 101.953 43.6719 101.953 45.1172C101.953 46.6016 100.813 47.9688 98.75 47.9688L95.1719 47.9687ZM108.484 54.5C110.414 54.5 111.633 53.4922 112.328 51.6016L117.289 38.0234L114.766 38L111.727 47.3125L111.602 47.3125L108.562 38L106.062 38L110.453 50.1563L110.164 50.9531C109.57 52.5469 108.734 52.6797 107.453 52.3281L106.891 54.2422C107.172 54.3672 107.781 54.5 108.484 54.5ZM117.33 53.4609L119.643 53.4609L119.643 50L128.01 50L128.01 53.4609L130.291 53.4609L130.291 47.9766L128.447 47.9766L128.447 38L120.291 38L119.916 42.4766C119.666 45.5 119.299 47.0781 118.307 47.9766L117.33 47.9766L117.33 53.4609ZM120.807 47.9766C121.604 46.8594 121.9 45 122.135 42.4766L122.385 40L126.166 40L126.166 47.9766L120.807 47.9766ZM134.863 46.7266L134.863 38L132.574 38L132.574 50L135.113 50L140.379 41.2656L140.379 50L142.668 50L142.668 38L140.152 38L134.863 46.7266ZM144.863 50L145.613 50C148.23 50 149.191 48.0625 149.379 44.0938L149.566 40.0156L153.488 40.0156L153.488 50L155.777 50L155.777 38L147.402 38L147.191 43.3125C147.043 47.0156 146.621 47.9766 145.285 47.9766L144.855 47.9766L144.863 50ZM161.182 42.125L161.182 38L158.893 38L158.893 50L164.135 50C167.072 50 168.713 48.2969 168.713 46.0391C168.713 43.7344 167.072 42.125 164.135 42.125L161.182 42.125ZM161.182 44.1406L164.135 44.1406C165.479 44.1406 166.439 44.9531 166.439 46.1094C166.439 47.2031 165.479 47.9844 164.135 47.9844L161.182 47.9844L161.182 44.1406ZM173.621 38L171.332 38L171.332 50L173.621 50L173.621 45.0156L178.816 45.0156L178.816 50L181.098 50L181.098 38L178.816 38L178.816 42.9922L173.621 42.9922L173.621 38ZM186.512 46.7266L186.512 38L184.223 38L184.223 50L186.762 50L192.027 41.2656L192.027 50L194.316 50L194.316 38L191.801 38L186.512 46.7266ZM197.457 50L199.793 50L199.793 45.2031L201.309 45.2031L204.926 50L207.824 50L203.121 43.8359L207.77 38L204.879 38L200.918 43.0313L199.793 43.0313L199.793 38L197.457 38L197.457 50ZM212.678 47.8125L210.428 47.8125L210.35 48.6875C210.17 50.8047 209.67 52.9375 209.459 53.9063L211.115 53.9063C211.49 52.8828 212.318 50.5391 212.561 48.6641L212.678 47.8125ZM221.541 50L223.877 50L223.877 45.2031L225.393 45.2031L229.01 50L231.908 50L227.205 43.8359L231.854 38L228.963 38L225.002 43.0313L223.877 43.0313L223.877 38L221.541 38L221.541 50ZM238.283 50.2422C241.666 50.2422 243.877 47.7656 243.877 44.0547C243.877 40.3203 241.666 37.8438 238.283 37.8438C234.9 37.8438 232.689 40.3203 232.689 44.0547C232.689 47.7656 234.9 50.2422 238.283 50.2422ZM238.291 48.2813C236.08 48.2813 235.049 46.3516 235.049 44.0469C235.049 41.75 236.08 39.7969 238.291 39.7969C240.486 39.7969 241.518 41.75 241.518 44.0469C241.518 46.3516 240.486 48.2813 238.291 48.2813ZM245.039 40.0156L248.969 40.0156L248.969 50L251.25 50L251.25 40.0156L255.164 40.0156L255.164 38L245.039 38L245.039 40.0156ZM262.131 50.2422C265.514 50.2422 267.725 47.7656 267.725 44.0547C267.725 40.3203 265.514 37.8438 262.131 37.8438C258.748 37.8438 256.537 40.3203 256.537 44.0547C256.537 47.7656 258.748 50.2422 262.131 50.2422ZM262.139 48.2813C259.928 48.2813 258.896 46.3516 258.896 44.0469C258.896 41.75 259.928 39.7969 262.139 39.7969C264.334 39.7969 265.365 41.75 265.365 44.0469C265.365 46.3516 264.334 48.2813 262.139 48.2813ZM270.332 54.5L272.668 54.5L272.668 48.1328L272.809 48.1328C273.23 48.8984 274.09 50.2344 276.277 50.2344C279.184 50.2344 281.293 47.9063 281.293 44.0234C281.293 40.1328 279.152 37.8438 276.254 37.8438C274.027 37.8438 273.223 39.2031 272.809 39.9453L272.613 39.9453L272.613 38L270.332 38L270.332 54.5ZM272.621 44C272.621 41.4922 273.715 39.8281 275.754 39.8281C277.871 39.8281 278.934 41.6172 278.934 44C278.934 46.4063 277.84 48.2422 275.754 48.2422C273.746 48.2422 272.621 46.5234 272.621 44ZM286.199 42.125L286.199 38L283.91 38L283.91 50L289.152 50C292.09 50 293.73 48.2969 293.73 46.0391C293.73 43.7344 292.09 42.125 289.152 42.125L286.199 42.125ZM295.434 50L297.77 50L297.77 38L295.434 38L295.434 50ZM286.199 44.1406L289.152 44.1406C290.496 44.1406 291.457 44.9531 291.457 46.1094C291.457 47.2031 290.496 47.9844 289.152 47.9844L286.199 47.9844L286.199 44.1406ZM303.193 46.7266L303.193 38L300.904 38L300.904 50L303.443 50L308.709 41.2656L308.709 50L310.998 50L310.998 38L308.482 38L303.193 46.7266ZM307.482 33.9375C307.482 34.7266 307.045 35.4219 305.951 35.4219C304.842 35.4219 304.428 34.7188 304.428 33.9375L302.514 33.9375C302.514 35.6953 303.85 36.9063 305.951 36.9063C308.068 36.9063 309.404 35.6953 309.404 33.9375L307.482 33.9375ZM94.8594 64L92.5703 64L92.5703 76L94.8594 76L94.8594 71.0156L100.055 71.0156L100.055 76L102.336 76L102.336 64L100.055 64L100.055 68.9922L94.8594 68.9922L94.8594 64ZM110.633 76.2422C113.25 76.2422 115.102 74.9531 115.633 73L113.422 72.6016C113 73.7344 111.984 74.3125 110.656 74.3125C108.656 74.3125 107.312 73.0156 107.25 70.7031L115.781 70.7031L115.781 69.875C115.781 65.5391 113.188 63.8438 110.469 63.8438C107.125 63.8438 104.922 66.3906 104.922 70.0781C104.922 73.8047 107.094 76.2422 110.633 76.2422ZM107.258 68.9531C107.352 67.25 108.586 65.7734 110.484 65.7734C112.297 65.7734 113.484 67.1172 113.492 68.9531L107.258 68.9531ZM118.373 76L124.107 76C126.732 76 128.271 74.6719 128.271 72.7656C128.271 70.9844 126.904 69.8906 125.303 69.7031C126.779 69.4219 127.756 68.6094 127.756 67.2031C127.756 65.2344 126.053 64 123.35 64L118.373 64L118.373 76ZM120.568 74.0469L120.568 70.7109L124.107 70.7109C125.264 70.7109 125.959 71.3906 125.959 72.5078C125.959 73.4609 125.264 74.0469 124.107 74.0469L120.568 74.0469ZM120.568 69L120.568 65.9766L123.35 65.9766C124.678 65.9766 125.482 66.5312 125.482 67.4531C125.482 68.4141 124.686 69 123.373 69L120.568 69ZM135.889 76.2422C139.271 76.2422 141.482 73.7656 141.482 70.0547C141.482 66.3203 139.271 63.8438 135.889 63.8438C132.506 63.8438 130.295 66.3203 130.295 70.0547C130.295 73.7656 132.506 76.2422 135.889 76.2422ZM135.896 74.2813C133.686 74.2813 132.654 72.3516 132.654 70.0469C132.654 67.75 133.686 65.7969 135.896 65.7969C138.092 65.7969 139.123 67.75 139.123 70.0469C139.123 72.3516 138.092 74.2813 135.896 74.2813ZM143.379 72.8281C143.449 74.9219 145.41 76.2422 148.074 76.2422C150.809 76.2422 152.785 74.8672 152.785 72.6641C152.785 71.1016 151.793 69.9453 150.402 69.8516L150.402 69.7266C151.66 69.3672 152.527 68.5234 152.527 67.2031C152.527 65.2344 150.84 63.8438 148.168 63.8438C145.605 63.8438 143.723 65.2109 143.676 67.2266L146.035 67.2266C146.082 66.3281 147.012 65.7031 148.285 65.7031C149.543 65.7031 150.277 66.3594 150.277 67.3359C150.277 68.25 149.621 68.9219 148.301 68.9219L146.348 68.9219L146.348 70.7578L148.301 70.7578C149.629 70.7578 150.48 71.4922 150.48 72.5781C150.48 73.8047 149.395 74.3594 148.051 74.3594C146.73 74.3594 145.84 73.8125 145.77 72.8281L143.379 72.8281ZM161.932 73.1094L158.135 64L155.197 64L155.197 76L157.486 76L157.486 67.2734L161.064 76L162.799 76L166.439 67.3047L166.439 76L168.713 76L168.713 64L165.807 64L161.932 73.1094ZM176.881 76.2422C180.264 76.2422 182.475 73.7656 182.475 70.0547C182.475 66.3203 180.264 63.8438 176.881 63.8438C173.498 63.8438 171.287 66.3203 171.287 70.0547C171.287 73.7656 173.498 76.2422 176.881 76.2422ZM176.889 74.2813C174.678 74.2813 173.646 72.3516 173.646 70.0469C173.646 67.75 174.678 65.7969 176.889 65.7969C179.084 65.7969 180.115 67.75 180.115 70.0469C180.115 72.3516 179.084 74.2813 176.889 74.2813ZM183.822 76L186.596 76L190.361 71L191.143 71L191.143 76L193.479 76L193.479 71L194.26 71L198.002 76L200.775 76L196.15 69.8594L200.721 64L198.002 64L194.291 68.9844L193.479 68.9844L193.479 64L191.143 64L191.143 68.9844L190.307 68.9844L186.596 64L183.877 64L188.471 69.8594L183.822 76ZM205.439 64L203.15 64L203.15 76L205.439 76L205.439 71.0156L210.635 71.0156L210.635 76L212.916 76L212.916 64L210.635 64L210.635 68.9922L205.439 68.9922L205.439 64ZM221.096 76.2422C224.479 76.2422 226.689 73.7656 226.689 70.0547C226.689 66.3203 224.479 63.8438 221.096 63.8438C217.713 63.8438 215.502 66.3203 215.502 70.0547C215.502 73.7656 217.713 76.2422 221.096 76.2422ZM221.104 74.2813C218.893 74.2813 217.861 72.3516 217.861 70.0469C217.861 67.75 218.893 65.7969 221.104 65.7969C223.299 65.7969 224.33 67.75 224.33 70.0469C224.33 72.3516 223.299 74.2813 221.104 74.2813ZM235.119 76L237.393 76L237.393 66.0156L242.619 66.0156L242.619 76L244.908 76L244.908 64L235.119 64L235.119 76ZM248.031 80.5L250.367 80.5L250.367 74.1328L250.508 74.1328C250.93 74.8984 251.789 76.2344 253.977 76.2344C256.883 76.2344 258.992 73.9063 258.992 70.0234C258.992 66.1328 256.852 63.8438 253.953 63.8438C251.727 63.8438 250.922 65.2031 250.508 65.9453L250.312 65.9453L250.312 64L248.031 64L248.031 80.5ZM250.32 70C250.32 67.4922 251.414 65.8281 253.453 65.8281C255.57 65.8281 256.633 67.6172 256.633 70C256.633 72.4063 255.539 74.2422 253.453 74.2422C251.445 74.2422 250.32 72.5234 250.32 70ZM266.664 76.2422C270.047 76.2422 272.258 73.7656 272.258 70.0547C272.258 66.3203 270.047 63.8438 266.664 63.8438C263.281 63.8438 261.07 66.3203 261.07 70.0547C261.07 73.7656 263.281 76.2422 266.664 76.2422ZM266.672 74.2813C264.461 74.2813 263.43 72.3516 263.43 70.0469C263.43 67.75 264.461 65.7969 266.672 65.7969C268.867 65.7969 269.898 67.75 269.898 70.0469C269.898 72.3516 268.867 74.2813 266.672 74.2813ZM279.92 76.2422C282.756 76.2422 284.592 74.5391 284.85 72.2031L282.576 72.2031C282.279 73.5 281.271 74.2656 279.936 74.2656C277.959 74.2656 276.686 72.6172 276.686 70C276.686 67.4297 277.982 65.8125 279.936 65.8125C281.42 65.8125 282.326 66.75 282.576 67.875L284.85 67.875C284.6 65.4531 282.623 63.8438 279.896 63.8438C276.514 63.8438 274.326 66.3906 274.326 70.0547C274.326 73.6719 276.436 76.2422 279.92 76.2422ZM287.348 76L289.621 76L289.621 66.0156L294.848 66.0156L294.848 76L297.137 76L297.137 64L287.348 64L287.348 76ZM303.752 76.2656C305.736 76.2656 306.854 75.2578 307.299 74.3594L307.393 74.3594L307.393 76L309.674 76L309.674 68.0313C309.674 64.5391 306.924 63.8438 305.018 63.8438C302.846 63.8438 300.846 64.7188 300.064 66.9063L302.26 67.4063C302.604 66.5547 303.479 65.7344 305.049 65.7344C306.557 65.7344 307.33 66.5234 307.33 67.8828L307.33 67.9375C307.33 68.7891 306.455 68.7734 304.299 69.0234C302.025 69.2891 299.697 69.8828 299.697 72.6094C299.697 74.9688 301.471 76.2656 303.752 76.2656ZM304.26 74.3906C302.939 74.3906 301.986 73.7969 301.986 72.6406C301.986 71.3906 303.096 70.9453 304.447 70.7656C305.205 70.6641 307.002 70.4609 307.338 70.125L307.338 71.6719C307.338 73.0938 306.205 74.3906 304.26 74.3906ZM311.297 66.0156L315.227 66.0156L315.227 76L317.508 76L317.508 66.0156L321.422 66.0156L321.422 64L311.297 64L311.297 66.0156ZM326.182 68.125L326.182 64L323.893 64L323.893 76L329.135 76C332.072 76 333.713 74.2969 333.713 72.0391C333.713 69.7344 332.072 68.125 329.135 68.125L326.182 68.125ZM326.182 70.1406L329.135 70.1406C330.479 70.1406 331.439 70.9531 331.439 72.1094C331.439 73.2031 330.479 73.9844 329.135 73.9844L326.182 73.9844L326.182 70.1406Z" fill="#273A3D"/>
<path d="M199.758 280L199.758 296L202.055 296L202.055 284.414L202.203 284.414L206.922 295.977L208.828 295.977L213.547 284.422L213.695 284.422L213.695 296L215.992 296L215.992 280L213.063 280L207.969 292.437L207.781 292.437L202.688 280L199.758 280ZM224.369 296.242C227.752 296.242 229.963 293.766 229.963 290.055C229.963 286.32 227.752 283.844 224.369 283.844C220.986 283.844 218.775 286.32 218.775 290.055C218.775 293.766 220.986 296.242 224.369 296.242ZM224.377 294.281C222.166 294.281 221.135 292.352 221.135 290.047C221.135 287.75 222.166 285.797 224.377 285.797C226.572 285.797 227.604 287.75 227.604 290.047C227.604 292.352 226.572 294.281 224.377 294.281ZM234.859 284L232.57 284L232.57 296L234.859 296L234.859 291.016L240.055 291.016L240.055 296L242.336 296L242.336 284L240.055 284L240.055 288.992L234.859 288.992L234.859 284ZM247.75 292.727L247.75 284L245.461 284L245.461 296L248 296L253.266 287.266L253.266 296L255.555 296L255.555 284L253.039 284L247.75 292.727ZM257.207 286.016L261.137 286.016L261.137 296L263.418 296L263.418 286.016L267.332 286.016L267.332 284L257.207 284L257.207 286.016ZM274.299 296.242C277.682 296.242 279.893 293.766 279.893 290.055C279.893 286.32 277.682 283.844 274.299 283.844C270.916 283.844 268.705 286.32 268.705 290.055C268.705 293.766 270.916 296.242 274.299 296.242ZM274.307 294.281C272.096 294.281 271.064 292.352 271.064 290.047C271.064 287.75 272.096 285.797 274.307 285.797C276.502 285.797 277.533 287.75 277.533 290.047C277.533 292.352 276.502 294.281 274.307 294.281ZM282.5 300.5L284.836 300.5L284.836 294.133L284.977 294.133C285.398 294.898 286.258 296.234 288.445 296.234C291.352 296.234 293.461 293.906 293.461 290.023C293.461 286.133 291.32 283.844 288.422 283.844C286.195 283.844 285.391 285.203 284.977 285.945L284.781 285.945L284.781 284L282.5 284L282.5 300.5ZM284.789 290C284.789 287.492 285.883 285.828 287.922 285.828C290.039 285.828 291.102 287.617 291.102 290C291.102 292.406 290.008 294.242 287.922 294.242C285.914 294.242 284.789 292.523 284.789 290ZM298.367 292.727L298.367 284L296.078 284L296.078 296L298.617 296L303.883 287.266L303.883 296L306.172 296L306.172 284L303.656 284L298.367 292.727ZM311.602 284L309.313 284L309.312 296L311.602 296L311.602 291.016L316.797 291.016L316.797 296L319.078 296L319.078 284L316.797 284L316.797 288.992L311.602 288.992L311.602 284ZM329.875 284L322.203 284L322.203 296L324.508 296L324.508 286.016L329.875 286.016L329.875 284ZM199.57 326.5L201.906 326.5L201.906 320.133L202.047 320.133C202.469 320.898 203.328 322.234 205.516 322.234C208.422 322.234 210.531 319.906 210.531 316.023C210.531 312.133 208.391 309.844 205.492 309.844C203.266 309.844 202.461 311.203 202.047 311.945L201.852 311.945L201.852 310L199.57 310L199.57 326.5ZM201.859 316C201.859 313.492 202.953 311.828 204.992 311.828C207.109 311.828 208.172 313.617 208.172 316C208.172 318.406 207.078 320.242 204.992 320.242C202.984 320.242 201.859 318.523 201.859 316ZM216.641 322.266C218.625 322.266 219.742 321.258 220.188 320.359L220.281 320.359L220.281 322L222.562 322L222.562 314.031C222.562 310.539 219.812 309.844 217.906 309.844C215.734 309.844 213.734 310.719 212.953 312.906L215.148 313.406C215.492 312.555 216.367 311.734 217.937 311.734C219.445 311.734 220.219 312.523 220.219 313.883L220.219 313.937C220.219 314.789 219.344 314.773 217.187 315.023C214.914 315.289 212.586 315.883 212.586 318.609C212.586 320.969 214.359 322.266 216.641 322.266ZM217.148 320.391C215.828 320.391 214.875 319.797 214.875 318.641C214.875 317.391 215.984 316.945 217.336 316.766C218.094 316.664 219.891 316.461 220.227 316.125L220.227 317.672C220.227 319.094 219.094 320.391 217.148 320.391ZM230.729 322.242C233.564 322.242 235.4 320.539 235.658 318.203L233.385 318.203C233.088 319.5 232.08 320.266 230.744 320.266C228.768 320.266 227.494 318.617 227.494 316C227.494 313.43 228.791 311.813 230.744 311.813C232.229 311.813 233.135 312.75 233.385 313.875L235.658 313.875C235.408 311.453 233.432 309.844 230.705 309.844C227.322 309.844 225.135 312.391 225.135 316.055C225.135 319.672 227.244 322.242 230.729 322.242ZM237.248 312.016L241.178 312.016L241.178 322L243.459 322L243.459 312.016L247.373 312.016L247.373 310L237.248 310L237.248 312.016ZM254.457 322.242C257.074 322.242 258.926 320.953 259.457 319L257.246 318.602C256.824 319.734 255.809 320.313 254.48 320.313C252.48 320.313 251.137 319.016 251.074 316.703L259.605 316.703L259.605 315.875C259.605 311.539 257.012 309.844 254.293 309.844C250.949 309.844 248.746 312.391 248.746 316.078C248.746 319.805 250.918 322.242 254.457 322.242ZM251.082 314.953C251.176 313.25 252.41 311.773 254.309 311.773C256.121 311.773 257.309 313.117 257.316 314.953L251.082 314.953ZM264.486 310L262.197 310L262.197 322L264.486 322L264.486 317.016L269.682 317.016L269.682 322L271.963 322L271.963 310L269.682 310L269.682 314.992L264.486 314.992L264.486 310ZM277.377 318.727L277.377 310L275.088 310L275.088 322L277.627 322L282.893 313.266L282.893 322L285.182 322L285.182 310L282.666 310L277.377 318.727ZM290.611 318.727L290.611 310L288.322 310L288.322 322L290.861 322L296.127 313.266L296.127 322L298.416 322L298.416 310L295.9 310L290.611 318.727ZM294.9 305.937C294.9 306.727 294.463 307.422 293.369 307.422C292.26 307.422 291.846 306.719 291.846 305.937L289.932 305.937C289.932 307.695 291.268 308.906 293.369 308.906C295.486 308.906 296.822 307.695 296.822 305.937L294.9 305.937Z" fill="#273A3D"/>
<path d="M578.25 50L581.195 50L574.555 41.1641L580.953 34L578.008 34L571.961 40.7578L571.172 40.7578L571.172 34L568.758 34L568.758 50L571.172 50L571.172 42.8281L572.875 42.8281L578.25 50ZM582.299 50L583.049 50C585.666 50 586.627 48.0625 586.814 44.0938L587.002 40.0156L590.924 40.0156L590.924 50L593.213 50L593.213 38L584.838 38L584.627 43.3125C584.479 47.0156 584.057 47.9766 582.721 47.9766L582.291 47.9766L582.299 50ZM598.617 46.7266L598.617 38L596.328 38L596.328 50L598.867 50L604.133 41.2656L604.133 50L606.422 50L606.422 38L603.906 38L598.617 46.7266ZM616.297 47.1094L612.5 38L609.563 38L609.562 50L611.852 50L611.852 41.2734L615.43 50L617.164 50L620.805 41.3047L620.805 50L623.078 50L623.078 38L620.172 38L616.297 47.1094ZM629.684 50.2656C631.668 50.2656 632.785 49.2578 633.23 48.3594L633.324 48.3594L633.324 50L635.605 50L635.605 42.0313C635.605 38.5391 632.855 37.8438 630.949 37.8438C628.777 37.8438 626.777 38.7187 625.996 40.9063L628.191 41.4063C628.535 40.5547 629.41 39.7344 630.98 39.7344C632.488 39.7344 633.262 40.5234 633.262 41.8828L633.262 41.9375C633.262 42.7891 632.387 42.7734 630.23 43.0234C627.957 43.2891 625.629 43.8828 625.629 46.6094C625.629 48.9688 627.402 50.2656 629.684 50.2656ZM630.191 48.3906C628.871 48.3906 627.918 47.7969 627.918 46.6406C627.918 45.3906 629.027 44.9453 630.379 44.7656C631.137 44.6641 632.934 44.4609 633.27 44.125L633.27 45.6719C633.27 47.0938 632.137 48.3906 630.191 48.3906ZM637.229 40.0156L641.158 40.0156L641.158 50L643.439 50L643.439 40.0156L647.354 40.0156L647.354 38L637.229 38L637.229 40.0156ZM656.4 42.2266L649.307 42.2266L649.307 44.25L656.4 44.25L656.4 42.2266ZM659.514 50L661.85 50L661.85 45.2031L663.365 45.2031L666.982 50L669.881 50L665.178 43.8359L669.826 38L666.936 38L662.975 43.0313L661.85 43.0313L661.85 38L659.514 38L659.514 50ZM676.256 50.2422C679.639 50.2422 681.85 47.7656 681.85 44.0547C681.85 40.3203 679.639 37.8438 676.256 37.8438C672.873 37.8438 670.662 40.3203 670.662 44.0547C670.662 47.7656 672.873 50.2422 676.256 50.2422ZM676.264 48.2813C674.053 48.2813 673.021 46.3516 673.021 44.0469C673.021 41.75 674.053 39.7969 676.264 39.7969C678.459 39.7969 679.49 41.75 679.49 44.0469C679.49 46.3516 678.459 48.2813 676.264 48.2813ZM686.746 38L684.457 38L684.457 50L686.746 50L686.746 45.0156L691.941 45.0156L691.941 50L694.223 50L694.223 38L691.941 38L691.941 42.9922L686.746 42.9922L686.746 38ZM695.859 40.0156L699.789 40.0156L699.789 50L702.07 50L702.07 40.0156L705.984 40.0156L705.984 38L695.859 38L695.859 40.0156ZM708.455 54.5L710.791 54.5L710.791 48.1328L710.932 48.1328C711.354 48.8984 712.213 50.2344 714.4 50.2344C717.307 50.2344 719.416 47.9063 719.416 44.0234C719.416 40.1328 717.275 37.8438 714.377 37.8438C712.15 37.8438 711.346 39.2031 710.932 39.9453L710.736 39.9453L710.736 38L708.455 38L708.455 54.5ZM710.744 44C710.744 41.4922 711.838 39.8281 713.877 39.8281C715.994 39.8281 717.057 41.6172 717.057 44C717.057 46.4063 715.963 48.2422 713.877 48.2422C711.869 48.2422 710.744 46.5234 710.744 44ZM727.088 50.2422C730.471 50.2422 732.682 47.7656 732.682 44.0547C732.682 40.3203 730.471 37.8438 727.088 37.8438C723.705 37.8438 721.494 40.3203 721.494 44.0547C721.494 47.7656 723.705 50.2422 727.088 50.2422ZM727.096 48.2813C724.885 48.2813 723.854 46.3516 723.854 44.0469C723.854 41.75 724.885 39.7969 727.096 39.7969C729.291 39.7969 730.322 41.75 730.322 44.0469C730.322 46.3516 729.291 48.2813 727.096 48.2813ZM734.344 50L735.094 50C737.711 50 738.672 48.0625 738.859 44.0938L739.047 40.0156L742.969 40.0156L742.969 50L745.258 50L745.258 38L736.883 38L736.672 43.3125C736.523 47.0156 736.102 47.9766 734.766 47.9766L734.336 47.9766L734.344 50ZM750.662 42.125L750.662 38L748.373 38L748.373 50L753.615 50C756.553 50 758.193 48.2969 758.193 46.0391C758.193 43.7344 756.553 42.125 753.615 42.125L750.662 42.125ZM750.662 44.1406L753.615 44.1406C754.959 44.1406 755.92 44.9531 755.92 46.1094C755.92 47.2031 754.959 47.9844 753.615 47.9844L750.662 47.9844L750.662 44.1406ZM573.625 76.2422C576.461 76.2422 578.297 74.5391 578.555 72.2031L576.281 72.2031C575.984 73.5 574.977 74.2656 573.641 74.2656C571.664 74.2656 570.391 72.6172 570.391 70C570.391 67.4297 571.687 65.8125 573.641 65.8125C575.125 65.8125 576.031 66.75 576.281 67.875L578.555 67.875C578.305 65.4531 576.328 63.8438 573.602 63.8438C570.219 63.8438 568.031 66.3906 568.031 70.0547C568.031 73.6719 570.141 76.2422 573.625 76.2422ZM587.062 60L587.062 76L589.281 76L597.414 64.2656L597.563 64.2656L597.563 76L599.977 76L599.977 60L597.742 60L589.602 71.75L589.453 71.75L589.453 60L587.062 60ZM612.99 76L615.936 76L609.295 67.1641L615.693 60L612.748 60L606.701 66.7578L605.912 66.7578L605.912 60L603.498 60L603.498 76L605.912 76L605.912 68.8281L607.615 68.8281L612.99 76ZM623.164 68.2266L616.07 68.2266L616.07 70.25L623.164 70.25L623.164 68.2266ZM626.277 76L628.613 76L628.613 71.2031L630.129 71.2031L633.746 76L636.645 76L631.941 69.8359L636.59 64L633.699 64L629.738 69.0313L628.613 69.0313L628.613 64L626.277 64L626.277 76ZM643.02 76.2422C646.402 76.2422 648.613 73.7656 648.613 70.0547C648.613 66.3203 646.402 63.8438 643.02 63.8438C639.637 63.8438 637.426 66.3203 637.426 70.0547C637.426 73.7656 639.637 76.2422 643.02 76.2422ZM643.027 74.2813C640.816 74.2813 639.785 72.3516 639.785 70.0469C639.785 67.75 640.816 65.7969 643.027 65.7969C645.223 65.7969 646.254 67.75 646.254 70.0469C646.254 72.3516 645.223 74.2813 643.027 74.2813ZM653.51 64L651.221 64L651.221 76L653.51 76L653.51 71.0156L658.705 71.0156L658.705 76L660.986 76L660.986 64L658.705 64L658.705 68.9922L653.51 68.9922L653.51 64ZM662.939 79.4609L665.252 79.4609L665.252 76L673.619 76L673.619 79.4609L675.9 79.4609L675.9 73.9766L674.057 73.9766L674.057 64L665.9 64L665.525 68.4766C665.275 71.5 664.908 73.0781 663.916 73.9766L662.939 73.9766L662.939 79.4609ZM666.416 73.9766C667.213 72.8594 667.51 71 667.744 68.4766L667.994 66L671.775 66L671.775 73.9766L666.416 73.9766ZM680.473 72.7266L680.473 64L678.184 64L678.184 76L680.723 76L685.988 67.2656L685.988 76L688.277 76L688.277 64L685.762 64L680.473 72.7266ZM701.199 64L698.926 64L698.926 73.9844L693.699 73.9844L693.699 64L691.41 64L691.41 76L700.66 76L700.66 79.8672L702.973 79.8672L702.973 74.0859L701.199 74.0859L701.199 64ZM707.844 72.7266L707.844 64L705.555 64L705.555 76L708.094 76L713.359 67.2656L713.359 76L715.648 76L715.648 64L713.133 64L707.844 72.7266ZM723.844 76.2422C727.227 76.2422 729.438 73.7656 729.438 70.0547C729.438 66.3203 727.227 63.8438 723.844 63.8438C720.461 63.8438 718.25 66.3203 718.25 70.0547C718.25 73.7656 720.461 76.2422 723.844 76.2422ZM723.852 74.2813C721.641 74.2813 720.609 72.3516 720.609 70.0469C720.609 67.75 721.641 65.7969 723.852 65.7969C726.047 65.7969 727.078 67.75 727.078 70.0469C727.078 72.3516 726.047 74.2813 723.852 74.2813ZM734.334 64L732.045 64L732.045 76L734.334 76L734.334 71.0156L739.529 71.0156L739.529 76L741.811 76L741.811 64L739.529 64L739.529 68.9922L734.334 68.9922L734.334 64ZM750.107 76.2422C752.725 76.2422 754.576 74.9531 755.107 73L752.896 72.6016C752.475 73.7344 751.459 74.3125 750.131 74.3125C748.131 74.3125 746.787 73.0156 746.725 70.7031L755.256 70.7031L755.256 69.875C755.256 65.5391 752.662 63.8438 749.943 63.8438C746.6 63.8438 744.396 66.3906 744.396 70.0781C744.396 73.8047 746.568 76.2422 750.107 76.2422ZM746.732 68.9531C746.826 67.25 748.061 65.7734 749.959 65.7734C751.771 65.7734 752.959 67.1172 752.967 68.9531L746.732 68.9531ZM757.848 80.5L760.184 80.5L760.184 74.1328L760.324 74.1328C760.746 74.8984 761.605 76.2344 763.793 76.2344C766.699 76.2344 768.809 73.9063 768.809 70.0234C768.809 66.1328 766.668 63.8438 763.77 63.8438C761.543 63.8438 760.738 65.2031 760.324 65.9453L760.129 65.9453L760.129 64L757.848 64L757.848 80.5ZM760.137 70C760.137 67.4922 761.23 65.8281 763.27 65.8281C765.387 65.8281 766.449 67.6172 766.449 70C766.449 72.4063 765.355 74.2422 763.27 74.2422C761.262 74.2422 760.137 72.5234 760.137 70ZM776.48 76.2422C779.863 76.2422 782.074 73.7656 782.074 70.0547C782.074 66.3203 779.863 63.8438 776.48 63.8438C773.098 63.8438 770.887 66.3203 770.887 70.0547C770.887 73.7656 773.098 76.2422 776.48 76.2422ZM776.488 74.2813C774.277 74.2813 773.246 72.3516 773.246 70.0469C773.246 67.75 774.277 65.7969 776.488 65.7969C778.684 65.7969 779.715 67.75 779.715 70.0469C779.715 72.3516 778.684 74.2813 776.488 74.2813ZM791.416 73.1094L787.619 64L784.682 64L784.682 76L786.971 76L786.971 67.2734L790.549 76L792.283 76L795.924 67.3047L795.924 76L798.197 76L798.197 64L795.291 64L791.416 73.1094Z" fill="#273A3D"/>
<path d="M688.266 280L675.922 280L675.922 296L678.328 296L678.328 282.062L685.859 282.062L685.859 296L688.266 296L688.266 280ZM691.77 300.5L694.105 300.5L694.105 294.133L694.246 294.133C694.668 294.898 695.527 296.234 697.715 296.234C700.621 296.234 702.73 293.906 702.73 290.023C702.73 286.133 700.59 283.844 697.691 283.844C695.465 283.844 694.66 285.203 694.246 285.945L694.051 285.945L694.051 284L691.77 284L691.77 300.5ZM694.059 290C694.059 287.492 695.152 285.828 697.191 285.828C699.309 285.828 700.371 287.617 700.371 290C700.371 292.406 699.277 294.242 697.191 294.242C695.184 294.242 694.059 292.523 694.059 290ZM710.402 296.242C713.785 296.242 715.996 293.766 715.996 290.055C715.996 286.32 713.785 283.844 710.402 283.844C707.02 283.844 704.809 286.32 704.809 290.055C704.809 293.766 707.02 296.242 710.402 296.242ZM710.41 294.281C708.199 294.281 707.168 292.352 707.168 290.047C707.168 287.75 708.199 285.797 710.41 285.797C712.605 285.797 713.637 287.75 713.637 290.047C713.637 292.352 712.605 294.281 710.41 294.281ZM723.658 296.242C726.494 296.242 728.33 294.539 728.588 292.203L726.314 292.203C726.018 293.5 725.01 294.266 723.674 294.266C721.697 294.266 720.424 292.617 720.424 290C720.424 287.43 721.721 285.813 723.674 285.813C725.158 285.813 726.064 286.75 726.314 287.875L728.588 287.875C728.338 285.453 726.361 283.844 723.635 283.844C720.252 283.844 718.064 286.391 718.064 290.055C718.064 293.672 720.174 296.242 723.658 296.242ZM730.178 286.016L734.107 286.016L734.107 296L736.389 296L736.389 286.016L740.303 286.016L740.303 284L730.178 284L730.178 286.016ZM745.707 296.266C747.691 296.266 748.809 295.258 749.254 294.359L749.348 294.359L749.348 296L751.629 296L751.629 288.031C751.629 284.539 748.879 283.844 746.973 283.844C744.801 283.844 742.801 284.719 742.02 286.906L744.215 287.406C744.559 286.555 745.434 285.734 747.004 285.734C748.512 285.734 749.285 286.523 749.285 287.883L749.285 287.938C749.285 288.789 748.41 288.773 746.254 289.023C743.98 289.289 741.652 289.883 741.652 292.609C741.652 294.969 743.426 296.266 745.707 296.266ZM746.215 294.391C744.895 294.391 743.941 293.797 743.941 292.641C743.941 291.391 745.051 290.945 746.402 290.766C747.16 290.664 748.957 290.461 749.293 290.125L749.293 291.672C749.293 293.094 748.16 294.391 746.215 294.391ZM761.896 296L764.092 296L764.092 284L759.021 284C756.256 284 754.568 285.43 754.568 287.688C754.568 289.266 755.396 290.43 756.826 290.969L754.021 296L756.412 296L759.029 291.305L761.896 291.305L761.896 296ZM761.896 289.414L758.865 289.414C757.592 289.414 756.85 288.742 756.857 287.719C756.85 286.688 757.654 285.992 759.021 285.992L761.896 285.992L761.896 289.414ZM680.625 322.242C683.461 322.242 685.297 320.539 685.555 318.203L683.281 318.203C682.984 319.5 681.977 320.266 680.641 320.266C678.664 320.266 677.391 318.617 677.391 316C677.391 313.43 678.687 311.812 680.641 311.812C682.125 311.812 683.031 312.75 683.281 313.875L685.555 313.875C685.305 311.453 683.328 309.844 680.602 309.844C677.219 309.844 675.031 312.391 675.031 316.055C675.031 319.672 677.141 322.242 680.625 322.242ZM690.342 318.727L690.342 310L688.053 310L688.053 322L690.592 322L695.857 313.266L695.857 322L698.146 322L698.146 310L695.631 310L690.342 318.727ZM706.342 322.242C709.178 322.242 711.014 320.539 711.271 318.203L708.998 318.203C708.701 319.5 707.693 320.266 706.357 320.266C704.381 320.266 703.107 318.617 703.107 316C703.107 313.43 704.404 311.813 706.357 311.813C707.842 311.813 708.748 312.75 708.998 313.875L711.271 313.875C711.021 311.453 709.045 309.844 706.318 309.844C702.936 309.844 700.748 312.391 700.748 316.055C700.748 319.672 702.857 322.242 706.342 322.242ZM712.861 312.016L716.791 312.016L716.791 322L719.072 322L719.072 312.016L722.986 312.016L722.986 310L712.861 310L712.861 312.016ZM730.07 322.242C732.688 322.242 734.539 320.953 735.07 319L732.859 318.602C732.437 319.734 731.422 320.313 730.094 320.313C728.094 320.313 726.75 319.016 726.688 316.703L735.219 316.703L735.219 315.875C735.219 311.539 732.625 309.844 729.906 309.844C726.562 309.844 724.359 312.391 724.359 316.078C724.359 319.805 726.531 322.242 730.07 322.242ZM726.695 314.953C726.789 313.25 728.023 311.773 729.922 311.773C731.734 311.773 732.922 313.117 732.93 314.953L726.695 314.953ZM744.545 319.109L740.748 310L737.811 310L737.811 322L740.1 322L740.1 313.273L743.678 322L745.412 322L749.053 313.305L749.053 322L751.326 322L751.326 310L748.42 310L744.545 319.109ZM757.932 322.266C759.916 322.266 761.033 321.258 761.479 320.359L761.572 320.359L761.572 322L763.854 322L763.854 314.031C763.854 310.539 761.104 309.844 759.197 309.844C757.025 309.844 755.025 310.719 754.244 312.906L756.439 313.406C756.783 312.555 757.658 311.734 759.229 311.734C760.736 311.734 761.51 312.523 761.51 313.883L761.51 313.938C761.51 314.789 760.635 314.773 758.479 315.023C756.205 315.289 753.877 315.883 753.877 318.609C753.877 320.969 755.65 322.266 757.932 322.266ZM758.439 320.391C757.119 320.391 756.166 319.797 756.166 318.641C756.166 317.391 757.275 316.945 758.627 316.766C759.385 316.664 761.182 316.461 761.518 316.125L761.518 317.672C761.518 319.094 760.385 320.391 758.439 320.391ZM782.045 305.531C781.459 306 780.568 306 779.326 305.992C778.959 305.992 778.561 305.992 778.123 306C774.232 306.078 772.264 308.844 772.264 314.328L772.264 315.516C772.264 319.922 774.451 322.242 777.803 322.242C781.154 322.242 783.326 319.914 783.326 316.18C783.326 312.492 781.193 310.453 778.303 310.453C776.561 310.453 775.107 311.195 774.326 312.68L774.178 312.68C774.443 309.641 775.584 308.133 778.178 308.055C780.482 307.984 781.943 307.992 783.014 307.008L782.045 305.531ZM777.811 320.281C775.826 320.281 774.615 318.695 774.615 316.219C774.646 313.789 775.842 312.398 777.787 312.398C779.764 312.398 780.967 313.789 780.967 316.219C780.967 318.703 779.764 320.281 777.811 320.281ZM791.107 322.242C793.725 322.242 795.576 320.953 796.107 319L793.896 318.602C793.475 319.734 792.459 320.313 791.131 320.313C789.131 320.313 787.787 319.016 787.725 316.703L796.256 316.703L796.256 315.875C796.256 311.539 793.662 309.844 790.943 309.844C787.6 309.844 785.396 312.391 785.396 316.078C785.396 319.805 787.568 322.242 791.107 322.242ZM787.732 314.953C787.826 313.25 789.061 311.773 790.959 311.773C792.771 311.773 793.959 313.117 793.967 314.953L787.732 314.953ZM798.137 318.828C798.207 320.922 800.168 322.242 802.832 322.242C805.566 322.242 807.543 320.867 807.543 318.664C807.543 317.102 806.551 315.945 805.16 315.852L805.16 315.727C806.418 315.367 807.285 314.523 807.285 313.203C807.285 311.234 805.598 309.844 802.926 309.844C800.363 309.844 798.48 311.211 798.434 313.227L800.793 313.227C800.84 312.328 801.77 311.703 803.043 311.703C804.301 311.703 805.035 312.359 805.035 313.336C805.035 314.25 804.379 314.922 803.059 314.922L801.105 314.922L801.105 316.758L803.059 316.758C804.387 316.758 805.238 317.492 805.238 318.578C805.238 319.805 804.152 320.359 802.809 320.359C801.488 320.359 800.598 319.813 800.527 318.828L798.137 318.828ZM815.01 322.242C818.393 322.242 820.604 319.766 820.604 316.055C820.604 312.32 818.393 309.844 815.01 309.844C811.627 309.844 809.416 312.32 809.416 316.055C809.416 319.766 811.627 322.242 815.01 322.242ZM815.018 320.281C812.807 320.281 811.775 318.352 811.775 316.047C811.775 313.75 812.807 311.797 815.018 311.797C817.213 311.797 818.244 313.75 818.244 316.047C818.244 318.352 817.213 320.281 815.018 320.281ZM823.211 322L825.484 322L825.484 312.016L830.711 312.016L830.711 322L833 322L833 310L823.211 310L823.211 322ZM839.615 322.266C841.6 322.266 842.717 321.258 843.162 320.359L843.256 320.359L843.256 322L845.537 322L845.537 314.031C845.537 310.539 842.787 309.844 840.881 309.844C838.709 309.844 836.709 310.719 835.928 312.906L838.123 313.406C838.467 312.555 839.342 311.734 840.912 311.734C842.42 311.734 843.193 312.523 843.193 313.883L843.193 313.938C843.193 314.789 842.318 314.773 840.162 315.023C837.889 315.289 835.561 315.883 835.561 318.609C835.561 320.969 837.334 322.266 839.615 322.266ZM840.123 320.391C838.803 320.391 837.85 319.797 837.85 318.641C837.85 317.391 838.959 316.945 840.311 316.766C841.068 316.664 842.865 316.461 843.201 316.125L843.201 317.672C843.201 319.094 842.068 320.391 840.123 320.391ZM853.703 322.242C856.539 322.242 858.375 320.539 858.633 318.203L856.359 318.203C856.062 319.5 855.055 320.266 853.719 320.266C851.742 320.266 850.469 318.617 850.469 316C850.469 313.43 851.766 311.813 853.719 311.813C855.203 311.813 856.109 312.75 856.359 313.875L858.633 313.875C858.383 311.453 856.406 309.844 853.68 309.844C850.297 309.844 848.109 312.391 848.109 316.055C848.109 319.672 850.219 322.242 853.703 322.242ZM863.42 310L861.131 310L861.131 322L863.42 322L863.42 317.016L868.615 317.016L868.615 322L870.896 322L870.896 310L868.615 310L868.615 314.992L863.42 314.992L863.42 310ZM879.076 322.242C882.459 322.242 884.67 319.766 884.67 316.055C884.67 312.32 882.459 309.844 879.076 309.844C875.693 309.844 873.482 312.32 873.482 316.055C873.482 319.766 875.693 322.242 879.076 322.242ZM879.084 320.281C876.873 320.281 875.842 318.352 875.842 316.047C875.842 313.75 876.873 311.797 879.084 311.797C881.279 311.797 882.311 313.75 882.311 316.047C882.311 318.352 881.279 320.281 879.084 320.281ZM892.332 322.242C895.168 322.242 897.004 320.539 897.262 318.203L894.988 318.203C894.691 319.5 893.684 320.266 892.348 320.266C890.371 320.266 889.098 318.617 889.098 316C889.098 313.43 890.395 311.813 892.348 311.813C893.832 311.813 894.738 312.75 894.988 313.875L897.262 313.875C897.012 311.453 895.035 309.844 892.309 309.844C888.926 309.844 886.738 312.391 886.738 316.055C886.738 319.672 888.848 322.242 892.332 322.242ZM898.852 312.016L902.781 312.016L902.781 322L905.062 322L905.062 312.016L908.977 312.016L908.977 310L898.852 310L898.852 312.016ZM913.736 318.727L913.736 310L911.447 310L911.447 322L913.986 322L919.252 313.266L919.252 322L921.541 322L921.541 310L919.025 310L913.736 318.727Z" fill="#273A3D"/>
<path d="M101.099 121.5C100.695 119.263 98.9048 117.942 96.7102 117.942C93.919 117.942 91.8949 120.094 91.8949 123.545C91.8949 126.997 93.919 129.149 96.7102 129.149C98.9048 129.149 100.695 127.828 101.099 125.591L99.7784 125.591C99.4588 127.104 98.1591 127.913 96.7102 127.913C94.7287 127.913 93.1733 126.379 93.1733 123.545C93.1733 120.712 94.7287 119.178 96.7102 119.178C98.1591 119.178 99.4588 119.987 99.7784 121.5L101.099 121.5ZM102.339 129L102.765 129C104.576 129 105.098 127.594 105.216 124.909L105.343 121.99L108.348 121.99L108.348 129L109.605 129L109.605 120.818L104.15 120.818L104.001 124.44C103.895 127.189 103.618 127.828 102.638 127.828L102.339 127.828L102.339 129ZM115.235 129.17C117.451 129.17 118.943 127.487 118.943 124.952C118.943 122.395 117.451 120.712 115.235 120.712C113.019 120.712 111.528 122.395 111.528 124.952C111.528 127.487 113.019 129.17 115.235 129.17ZM115.235 128.041C113.552 128.041 112.785 126.592 112.785 124.952C112.785 123.311 113.552 121.841 115.235 121.841C116.918 121.841 117.685 123.311 117.685 124.952C117.685 126.592 116.918 128.041 115.235 128.041ZM120.013 129L121.526 129L124.317 125.484L124.956 125.484L124.956 129L126.214 129L126.214 125.484L126.853 125.484L129.623 129L131.135 129L127.833 124.845L131.093 120.818L129.601 120.818L126.874 124.313L126.214 124.313L126.214 120.818L124.956 120.818L124.956 124.313L124.275 124.313L121.547 120.818L120.056 120.818L123.337 124.845L120.013 129ZM134.189 120.818L132.932 120.818L132.932 129L134.189 129L134.189 125.506L138.109 125.506L138.109 129L139.366 129L139.366 120.818L138.109 120.818L138.109 124.334L134.189 124.334L134.189 120.818ZM144.986 129.17C147.202 129.17 148.694 127.487 148.694 124.952C148.694 122.395 147.202 120.712 144.986 120.712C142.77 120.712 141.279 122.395 141.279 124.952C141.279 127.487 142.77 129.17 144.986 129.17ZM144.986 128.041C143.303 128.041 142.536 126.592 142.536 124.952C142.536 123.311 143.303 121.841 144.986 121.841C146.669 121.841 147.436 123.311 147.436 124.952C147.436 126.592 146.669 128.041 144.986 128.041ZM153.936 129.17C155.747 129.17 156.941 128.063 157.154 126.614L155.897 126.614C155.662 127.509 154.916 128.041 153.936 128.041C152.445 128.041 151.486 126.805 151.486 124.909C151.486 123.055 152.466 121.841 153.936 121.841C155.044 121.841 155.705 122.523 155.897 123.268L157.154 123.268C156.941 121.734 155.641 120.712 153.915 120.712C151.699 120.712 150.229 122.459 150.229 124.952C150.229 127.402 151.635 129.17 153.936 129.17ZM158.347 121.99L161.053 121.99L161.053 129L162.31 129L162.31 121.99L164.995 121.99L164.995 120.818L158.347 120.818L158.347 121.99ZM168.085 123.78L168.085 120.818L166.828 120.818L166.828 129L170.259 129C172.176 129 173.22 127.828 173.22 126.358C173.22 124.866 172.176 123.78 170.259 123.78L168.085 123.78ZM168.085 124.952L170.259 124.952C171.255 124.952 171.963 125.559 171.963 126.422C171.963 127.248 171.255 127.828 170.259 127.828L168.085 127.828L168.085 124.952Z" fill="#273A3D"/>
<path d="M208.099 367.5C207.695 365.263 205.905 363.942 203.71 363.942C200.919 363.942 198.895 366.094 198.895 369.545C198.895 372.997 200.919 375.149 203.71 375.149C205.905 375.149 207.695 373.828 208.099 371.591L206.778 371.591C206.459 373.104 205.159 373.913 203.71 373.913C201.729 373.913 200.173 372.379 200.173 369.545C200.173 366.712 201.729 365.178 203.71 365.178C205.159 365.178 206.459 365.987 206.778 367.5L208.099 367.5ZM209.339 375L209.765 375C211.576 375 212.098 373.594 212.216 370.909L212.343 367.99L215.348 367.99L215.348 375L216.605 375L216.605 366.818L211.15 366.818L211.001 370.44C210.895 373.189 210.618 373.828 209.638 373.828L209.339 373.828L209.339 375ZM222.235 375.17C224.451 375.17 225.943 373.487 225.943 370.952C225.943 368.395 224.451 366.712 222.235 366.712C220.019 366.712 218.528 368.395 218.528 370.952C218.528 373.487 220.019 375.17 222.235 375.17ZM222.235 374.041C220.552 374.041 219.785 372.592 219.785 370.952C219.785 369.311 220.552 367.841 222.235 367.841C223.918 367.841 224.685 369.311 224.685 370.952C224.685 372.592 223.918 374.041 222.235 374.041ZM227.013 375L228.526 375L231.317 371.484L231.956 371.484L231.956 375L233.214 375L233.214 371.484L233.853 371.484L236.623 375L238.135 375L234.833 370.845L238.093 366.818L236.601 366.818L233.874 370.313L233.214 370.313L233.214 366.818L231.956 366.818L231.956 370.313L231.275 370.313L228.547 366.818L227.056 366.818L230.337 370.845L227.013 375ZM241.189 366.818L239.932 366.818L239.932 375L241.189 375L241.189 371.506L245.109 371.506L245.109 375L246.366 375L246.366 366.818L245.109 366.818L245.109 370.334L241.189 370.334L241.189 366.818ZM251.986 375.17C254.202 375.17 255.694 373.487 255.694 370.952C255.694 368.395 254.202 366.712 251.986 366.712C249.77 366.712 248.279 368.395 248.279 370.952C248.279 373.487 249.77 375.17 251.986 375.17ZM251.986 374.041C250.303 374.041 249.536 372.592 249.536 370.952C249.536 369.311 250.303 367.841 251.986 367.841C253.669 367.841 254.436 369.311 254.436 370.952C254.436 372.592 253.669 374.041 251.986 374.041ZM260.936 375.17C262.747 375.17 263.941 374.063 264.154 372.614L262.897 372.614C262.662 373.509 261.916 374.041 260.936 374.041C259.445 374.041 258.486 372.805 258.486 370.909C258.486 369.055 259.466 367.841 260.936 367.841C262.044 367.841 262.705 368.523 262.897 369.268L264.154 369.268C263.941 367.734 262.641 366.712 260.915 366.712C258.699 366.712 257.229 368.459 257.229 370.952C257.229 373.402 258.635 375.17 260.936 375.17ZM265.347 367.99L268.053 367.99L268.053 375L269.31 375L269.31 367.99L271.995 367.99L271.995 366.818L265.347 366.818L265.347 367.99ZM275.085 369.78L275.085 366.818L273.828 366.818L273.828 375L277.259 375C279.176 375 280.22 373.828 280.22 372.358C280.22 370.866 279.176 369.78 277.259 369.78L275.085 369.78ZM275.085 370.952L277.259 370.952C278.255 370.952 278.963 371.559 278.963 372.422C278.963 373.248 278.255 373.828 277.259 373.828L275.085 373.828L275.085 370.952Z" fill="#273A3D"/>
<path d="M577.099 121.5C576.695 119.263 574.905 117.942 572.71 117.942C569.919 117.942 567.895 120.094 567.895 123.545C567.895 126.997 569.919 129.149 572.71 129.149C574.905 129.149 576.695 127.828 577.099 125.591L575.778 125.591C575.459 127.104 574.159 127.913 572.71 127.913C570.729 127.913 569.173 126.379 569.173 123.545C569.173 120.712 570.729 119.178 572.71 119.178C574.159 119.178 575.459 119.987 575.778 121.5L577.099 121.5ZM578.339 129L578.765 129C580.576 129 581.098 127.594 581.216 124.909L581.343 121.99L584.348 121.99L584.348 129L585.605 129L585.605 120.818L580.15 120.818L580.001 124.44C579.895 127.189 579.618 127.828 578.638 127.828L578.339 127.828L578.339 129ZM591.235 129.17C593.451 129.17 594.943 127.487 594.943 124.952C594.943 122.395 593.451 120.712 591.235 120.712C589.019 120.712 587.528 122.395 587.528 124.952C587.528 127.487 589.019 129.17 591.235 129.17ZM591.235 128.041C589.552 128.041 588.785 126.592 588.785 124.952C588.785 123.311 589.552 121.841 591.235 121.841C592.918 121.841 593.685 123.311 593.685 124.952C593.685 126.592 592.918 128.041 591.235 128.041ZM596.013 129L597.526 129L600.317 125.484L600.956 125.484L600.956 129L602.214 129L602.214 125.484L602.853 125.484L605.623 129L607.135 129L603.833 124.845L607.093 120.818L605.601 120.818L602.874 124.313L602.214 124.313L602.214 120.818L600.956 120.818L600.956 124.313L600.275 124.313L597.547 120.818L596.056 120.818L599.337 124.845L596.013 129ZM610.189 120.818L608.932 120.818L608.932 129L610.189 129L610.189 125.506L614.109 125.506L614.109 129L615.366 129L615.366 120.818L614.109 120.818L614.109 124.334L610.189 124.334L610.189 120.818ZM620.986 129.17C623.202 129.17 624.694 127.487 624.694 124.952C624.694 122.395 623.202 120.712 620.986 120.712C618.77 120.712 617.279 122.395 617.279 124.952C617.279 127.487 618.77 129.17 620.986 129.17ZM620.986 128.041C619.303 128.041 618.536 126.592 618.536 124.952C618.536 123.311 619.303 121.841 620.986 121.841C622.669 121.841 623.436 123.311 623.436 124.952C623.436 126.592 622.669 128.041 620.986 128.041ZM629.936 129.17C631.747 129.17 632.941 128.063 633.154 126.614L631.897 126.614C631.662 127.509 630.916 128.041 629.936 128.041C628.445 128.041 627.486 126.805 627.486 124.909C627.486 123.055 628.466 121.841 629.936 121.841C631.044 121.841 631.705 122.523 631.897 123.268L633.154 123.268C632.941 121.734 631.641 120.712 629.915 120.712C627.699 120.712 626.229 122.459 626.229 124.952C626.229 127.402 627.635 129.17 629.936 129.17ZM634.347 121.99L637.053 121.99L637.053 129L638.31 129L638.31 121.99L640.995 121.99L640.995 120.818L634.347 120.818L634.347 121.99ZM644.085 123.78L644.085 120.818L642.828 120.818L642.828 129L646.259 129C648.176 129 649.22 127.828 649.22 126.358C649.22 124.866 648.176 123.78 646.259 123.78L644.085 123.78ZM644.085 124.952L646.259 124.952C647.255 124.952 647.963 125.559 647.963 126.422C647.963 127.248 647.255 127.828 646.259 127.828L644.085 127.828L644.085 124.952Z" fill="#273A3D"/>
<path d="M684.099 367.5C683.695 365.263 681.905 363.942 679.71 363.942C676.919 363.942 674.895 366.094 674.895 369.545C674.895 372.997 676.919 375.149 679.71 375.149C681.905 375.149 683.695 373.828 684.099 371.591L682.778 371.591C682.459 373.104 681.159 373.913 679.71 373.913C677.729 373.913 676.173 372.379 676.173 369.545C676.173 366.712 677.729 365.178 679.71 365.178C681.159 365.178 682.459 365.987 682.778 367.5L684.099 367.5ZM685.339 375L685.765 375C687.576 375 688.098 373.594 688.216 370.909L688.343 367.99L691.348 367.99L691.348 375L692.605 375L692.605 366.818L687.15 366.818L687.001 370.44C686.895 373.189 686.618 373.828 685.638 373.828L685.339 373.828L685.339 375ZM698.235 375.17C700.451 375.17 701.943 373.487 701.943 370.952C701.943 368.395 700.451 366.712 698.235 366.712C696.019 366.712 694.528 368.395 694.528 370.952C694.528 373.487 696.019 375.17 698.235 375.17ZM698.235 374.041C696.552 374.041 695.785 372.592 695.785 370.952C695.785 369.311 696.552 367.841 698.235 367.841C699.918 367.841 700.685 369.311 700.685 370.952C700.685 372.592 699.918 374.041 698.235 374.041ZM703.013 375L704.526 375L707.317 371.484L707.956 371.484L707.956 375L709.214 375L709.214 371.484L709.853 371.484L712.623 375L714.135 375L710.833 370.845L714.093 366.818L712.601 366.818L709.874 370.313L709.214 370.313L709.214 366.818L707.956 366.818L707.956 370.313L707.275 370.313L704.547 366.818L703.056 366.818L706.337 370.845L703.013 375ZM717.189 366.818L715.932 366.818L715.932 375L717.189 375L717.189 371.506L721.109 371.506L721.109 375L722.366 375L722.366 366.818L721.109 366.818L721.109 370.334L717.189 370.334L717.189 366.818ZM727.986 375.17C730.202 375.17 731.694 373.487 731.694 370.952C731.694 368.395 730.202 366.712 727.986 366.712C725.77 366.712 724.279 368.395 724.279 370.952C724.279 373.487 725.77 375.17 727.986 375.17ZM727.986 374.041C726.303 374.041 725.536 372.592 725.536 370.952C725.536 369.311 726.303 367.841 727.986 367.841C729.669 367.841 730.436 369.311 730.436 370.952C730.436 372.592 729.669 374.041 727.986 374.041ZM736.936 375.17C738.747 375.17 739.941 374.063 740.154 372.614L738.897 372.614C738.662 373.509 737.916 374.041 736.936 374.041C735.445 374.041 734.486 372.805 734.486 370.909C734.486 369.055 735.466 367.841 736.936 367.841C738.044 367.841 738.705 368.523 738.897 369.268L740.154 369.268C739.941 367.734 738.641 366.712 736.915 366.712C734.699 366.712 733.229 368.459 733.229 370.952C733.229 373.402 734.635 375.17 736.936 375.17ZM741.347 367.99L744.053 367.99L744.053 375L745.31 375L745.31 367.99L747.995 367.99L747.995 366.818L741.347 366.818L741.347 367.99ZM751.085 369.78L751.085 366.818L749.828 366.818L749.828 375L753.259 375C755.176 375 756.22 373.828 756.22 372.358C756.22 370.866 755.176 369.78 753.259 369.78L751.085 369.78ZM751.085 370.952L753.259 370.952C754.255 370.952 754.963 371.559 754.963 372.422C754.963 373.248 754.255 373.828 753.259 373.828L751.085 373.828L751.085 370.952Z" fill="#273A3D"/>
<path d="M229.589 127.743L228.46 127.743L228.46 118.091L227.203 118.091L227.203 127.786L221.578 127.786L221.578 118.091L220.321 118.091L220.321 129L228.077 129L228.077 131.578L229.44 131.578L229.589 127.743ZM234.846 129.17C236.508 129.17 237.722 128.339 238.106 127.104L236.891 126.763C236.571 127.615 235.831 128.041 234.846 128.041C233.37 128.041 232.353 127.088 232.294 125.335L238.233 125.335L238.233 124.803C238.233 121.756 236.422 120.712 234.718 120.712C232.502 120.712 231.032 122.459 231.032 124.973C231.032 127.487 232.481 129.17 234.846 129.17ZM232.294 124.249C232.379 122.975 233.28 121.841 234.718 121.841C236.081 121.841 236.955 122.864 236.955 124.249L232.294 124.249ZM241.403 120.818L240.146 120.818L240.146 129L241.403 129L241.403 125.506L245.323 125.506L245.323 129L246.58 129L246.58 120.818L245.323 120.818L245.323 124.334L241.403 124.334L241.403 120.818ZM251.284 129.192C252.711 129.192 253.457 128.425 253.713 127.892L253.777 127.892L253.777 129L255.034 129L255.034 123.609C255.034 121.01 253.052 120.712 252.008 120.712C250.772 120.712 249.366 121.138 248.727 122.629L249.92 123.055C250.197 122.459 250.852 121.82 252.051 121.82C253.207 121.82 253.777 122.432 253.777 123.482L253.777 123.524C253.777 124.131 253.159 124.078 251.667 124.27C250.149 124.467 248.493 124.803 248.493 126.678C248.493 128.276 249.728 129.192 251.284 129.192ZM251.476 128.063C250.474 128.063 249.75 127.615 249.75 126.741C249.75 125.783 250.623 125.484 251.603 125.357C252.136 125.293 253.564 125.143 253.777 124.888L253.777 126.038C253.777 127.061 252.967 128.063 251.476 128.063Z" fill="#273A3D"/>
<path d="M336.589 373.743L335.46 373.743L335.46 364.091L334.203 364.091L334.203 373.786L328.578 373.786L328.578 364.091L327.321 364.091L327.321 375L335.077 375L335.077 377.578L336.44 377.578L336.589 373.743ZM341.846 375.17C343.508 375.17 344.722 374.339 345.106 373.104L343.891 372.763C343.571 373.615 342.831 374.041 341.846 374.041C340.37 374.041 339.353 373.088 339.294 371.335L345.233 371.335L345.233 370.803C345.233 367.756 343.422 366.712 341.718 366.712C339.502 366.712 338.032 368.459 338.032 370.973C338.032 373.487 339.481 375.17 341.846 375.17ZM339.294 370.249C339.379 368.975 340.28 367.841 341.718 367.841C343.081 367.841 343.955 368.864 343.955 370.249L339.294 370.249ZM348.403 366.818L347.146 366.818L347.146 375L348.403 375L348.403 371.506L352.323 371.506L352.323 375L353.58 375L353.58 366.818L352.323 366.818L352.323 370.334L348.403 370.334L348.403 366.818ZM358.284 375.192C359.711 375.192 360.457 374.425 360.713 373.892L360.777 373.892L360.777 375L362.034 375L362.034 369.609C362.034 367.01 360.052 366.712 359.008 366.712C357.772 366.712 356.366 367.138 355.727 368.629L356.92 369.055C357.197 368.459 357.852 367.82 359.051 367.82C360.207 367.82 360.777 368.432 360.777 369.482L360.777 369.524C360.777 370.131 360.159 370.078 358.667 370.27C357.149 370.467 355.493 370.803 355.493 372.678C355.493 374.276 356.728 375.192 358.284 375.192ZM358.476 374.063C357.474 374.063 356.75 373.615 356.75 372.741C356.75 371.783 357.623 371.484 358.603 371.357C359.136 371.293 360.564 371.143 360.777 370.888L360.777 372.038C360.777 373.061 359.967 374.063 358.476 374.063Z" fill="#273A3D"/>
<path d="M705.589 127.743L704.46 127.743L704.46 118.091L703.203 118.091L703.203 127.786L697.578 127.786L697.578 118.091L696.321 118.091L696.321 129L704.077 129L704.077 131.578L705.44 131.578L705.589 127.743ZM710.846 129.17C712.508 129.17 713.722 128.339 714.106 127.104L712.891 126.763C712.571 127.615 711.831 128.041 710.846 128.041C709.37 128.041 708.353 127.088 708.294 125.335L714.233 125.335L714.233 124.803C714.233 121.756 712.422 120.712 710.718 120.712C708.502 120.712 707.032 122.459 707.032 124.973C707.032 127.487 708.481 129.17 710.846 129.17ZM708.294 124.249C708.379 122.975 709.28 121.841 710.718 121.841C712.081 121.841 712.955 122.864 712.955 124.249L708.294 124.249ZM717.403 120.818L716.146 120.818L716.146 129L717.403 129L717.403 125.506L721.323 125.506L721.323 129L722.58 129L722.58 120.818L721.323 120.818L721.323 124.334L717.403 124.334L717.403 120.818ZM727.284 129.192C728.711 129.192 729.457 128.425 729.713 127.892L729.777 127.892L729.777 129L731.034 129L731.034 123.609C731.034 121.01 729.052 120.712 728.008 120.712C726.772 120.712 725.366 121.138 724.727 122.629L725.92 123.055C726.197 122.459 726.852 121.82 728.051 121.82C729.207 121.82 729.777 122.432 729.777 123.482L729.777 123.524C729.777 124.131 729.159 124.078 727.667 124.27C726.149 124.467 724.493 124.803 724.493 126.678C724.493 128.276 725.728 129.192 727.284 129.192ZM727.476 128.063C726.474 128.063 725.75 127.615 725.75 126.741C725.75 125.783 726.623 125.484 727.603 125.357C728.136 125.293 729.564 125.143 729.777 124.888L729.777 126.038C729.777 127.061 728.967 128.063 727.476 128.063Z" fill="#273A3D"/>
<path d="M812.589 373.743L811.46 373.743L811.46 364.091L810.203 364.091L810.203 373.786L804.578 373.786L804.578 364.091L803.321 364.091L803.321 375L811.077 375L811.077 377.578L812.44 377.578L812.589 373.743ZM817.846 375.17C819.508 375.17 820.722 374.339 821.106 373.104L819.891 372.763C819.571 373.615 818.831 374.041 817.846 374.041C816.37 374.041 815.353 373.088 815.294 371.335L821.233 371.335L821.233 370.803C821.233 367.756 819.422 366.712 817.718 366.712C815.502 366.712 814.032 368.459 814.032 370.973C814.032 373.487 815.481 375.17 817.846 375.17ZM815.294 370.249C815.379 368.975 816.28 367.841 817.718 367.841C819.081 367.841 819.955 368.864 819.955 370.249L815.294 370.249ZM824.403 366.818L823.146 366.818L823.146 375L824.403 375L824.403 371.506L828.323 371.506L828.323 375L829.58 375L829.58 366.818L828.323 366.818L828.323 370.334L824.403 370.334L824.403 366.818ZM834.284 375.192C835.711 375.192 836.457 374.425 836.713 373.892L836.777 373.892L836.777 375L838.034 375L838.034 369.609C838.034 367.01 836.052 366.712 835.008 366.712C833.772 366.712 832.366 367.138 831.727 368.629L832.92 369.055C833.197 368.459 833.852 367.82 835.051 367.82C836.207 367.82 836.777 368.432 836.777 369.482L836.777 369.524C836.777 370.131 836.159 370.078 834.667 370.27C833.149 370.467 831.493 370.803 831.493 372.678C831.493 374.276 832.728 375.192 834.284 375.192ZM834.476 374.063C833.474 374.063 832.75 373.615 832.75 372.741C832.75 371.783 833.623 371.484 834.603 371.357C835.136 371.293 836.564 371.143 836.777 370.888L836.777 372.038C836.777 373.061 835.967 374.063 834.476 374.063Z" fill="#273A3D"/>
<circle cx="99.5" cy="150.5" r="8.5" fill="#273A3D"/>
<circle cx="206.5" cy="396.5" r="8.5" fill="#273A3D"/>
<circle cx="575.5" cy="150.5" r="8.5" fill="#273A3D"/>
<circle cx="682.5" cy="396.5" r="8.5" fill="#273A3D"/>
<circle cx="227.5" cy="150.5" r="8.5" fill="#273A3D"/>
<circle cx="334.5" cy="396.5" r="8.5" fill="#273A3D"/>
<circle cx="703.5" cy="150.5" r="8.5" fill="#273A3D"/>
<circle cx="810.5" cy="396.5" r="8.5" fill="#273A3D"/>
<circle cx="125.5" cy="150.5" r="8.5" fill="#273A3D"/>
<circle cx="232.5" cy="396.5" r="8.5" fill="#273A3D"/>
<circle cx="601.5" cy="150.5" r="7.7" stroke="#273A3D" stroke-width="1.6"/>
<circle cx="708.5" cy="396.5" r="8.5" fill="#273A3D"/>
<circle cx="253.5" cy="150.5" r="7.7" stroke="#273A3D" stroke-width="1.6"/>
<circle cx="360.5" cy="396.5" r="8.5" fill="#273A3D"/>
<circle cx="729.5" cy="150.5" r="7.7" stroke="#273A3D" stroke-width="1.6"/>
<circle cx="836.5" cy="396.5" r="8.5" fill="#273A3D"/>
<circle cx="150.5" cy="150.5" r="7.7" stroke="#273A3D" stroke-width="1.6"/>
<circle cx="257.5" cy="396.5" r="7.7" stroke="#273A3D" stroke-width="1.6"/>
<circle cx="626.5" cy="150.5" r="7.7" stroke="#273A3D" stroke-width="1.6"/>
<circle cx="733.5" cy="396.5" r="7.7" stroke="#273A3D" stroke-width="1.6"/>
<circle cx="278.5" cy="150.5" r="7.7" stroke="#273A3D" stroke-width="1.6"/>
<circle cx="385.5" cy="396.5" r="7.7" stroke="#273A3D" stroke-width="1.6"/>
<circle cx="754.5" cy="150.5" r="7.7" stroke="#273A3D" stroke-width="1.6"/>
<circle cx="861.5" cy="396.5" r="8.5" fill="#273A3D"/>
<circle cx="176.5" cy="150.5" r="7.7" stroke="#273A3D" stroke-width="1.6"/>
<circle cx="283.5" cy="396.5" r="7.7" stroke="#273A3D" stroke-width="1.6"/>
<circle cx="652.5" cy="150.5" r="7.7" stroke="#273A3D" stroke-width="1.6"/>
<circle cx="759.5" cy="396.5" r="7.7" stroke="#273A3D" stroke-width="1.6"/>
<circle cx="304.5" cy="150.5" r="7.7" stroke="#273A3D" stroke-width="1.6"/>
<circle cx="411.5" cy="396.5" r="7.7" stroke="#273A3D" stroke-width="1.6"/>
<circle cx="780.5" cy="150.5" r="7.7" stroke="#273A3D" stroke-width="1.6"/>
<circle cx="887.5" cy="396.5" r="7.7" stroke="#273A3D" stroke-width="1.6"/>
<path d="M69.6663 41.3934L59.6997 33.03L56.9047 36.345L66.8713 44.7084L69.6663 41.3934ZM39.073 36.345L36.2997 33.03L26.333 41.3717L29.128 44.6867L39.073 36.345ZM49.083 46.3334H45.833V59.3334L56.1247 65.5084L57.7497 62.8434L49.083 57.7084V46.3334ZM47.9997 37.6667C37.2313 37.6667 28.4997 46.3984 28.4997 57.1667C28.4997 67.935 37.2097 76.6667 47.9997 76.6667C58.768 76.6667 67.4997 67.935 67.4997 57.1667C67.4997 46.3984 58.768 37.6667 47.9997 37.6667ZM47.9997 72.3334C39.6147 72.3334 32.833 65.5517 32.833 57.1667C32.833 48.7817 39.6147 42 47.9997 42C56.3847 42 63.1663 48.7817 63.1663 57.1667C63.1663 65.5517 56.3847 72.3334 47.9997 72.3334Z" fill="#273A3D"/>
<path d="M542.334 53.1666H534.689L540.629 47.2266L538.044 44.6233L529.5 53.1666H525.834V49.5L534.377 40.9566L531.774 38.3716L525.834 44.3116V36.6666H522.167V44.3116L516.227 38.3716L513.624 40.9566L522.167 49.5V53.1666H518.5L509.957 44.6233L507.372 47.2266L513.312 53.1666H505.667V56.8333H513.312L507.372 62.7733L509.957 65.3766L518.5 56.8333H522.167V60.5L513.624 69.0433L516.227 71.6283L522.167 65.6883V73.3333H525.834V65.6883L531.774 71.6283L534.377 69.0433L525.834 60.5V56.8333H529.5L538.044 65.3766L540.629 62.7733L534.689 56.8333H542.334V53.1666Z" fill="#273A3D"/>
</svg>
