<svg width="690" height="244" viewBox="0 0 690 244" fill="none" xmlns="http://www.w3.org/2000/svg">
<path d="M89.048 31.12C87.8 31.12 86.664 30.88 85.64 30.4C84.632 29.92 83.76 29.272 83.024 28.456C82.304 27.624 81.744 26.696 81.344 25.672C80.944 24.632 80.744 23.568 80.744 22.48C80.744 21.344 80.952 20.264 81.368 19.24C81.784 18.2 82.368 17.28 83.12 16.48C83.872 15.664 84.752 15.024 85.76 14.56C86.784 14.08 87.904 13.84 89.12 13.84C90.352 13.84 91.472 14.088 92.48 14.584C93.504 15.08 94.376 15.744 95.096 16.576C95.832 17.408 96.392 18.344 96.776 19.384C97.176 20.408 97.376 21.456 97.376 22.528C97.376 23.648 97.168 24.728 96.752 25.768C96.336 26.792 95.752 27.712 95 28.528C94.264 29.328 93.384 29.96 92.36 30.424C91.352 30.888 90.248 31.12 89.048 31.12ZM84.104 22.48C84.104 23.472 84.296 24.4 84.68 25.264C85.08 26.128 85.648 26.832 86.384 27.376C87.136 27.92 88.032 28.192 89.072 28.192C90.144 28.192 91.048 27.912 91.784 27.352C92.52 26.792 93.08 26.072 93.464 25.192C93.848 24.312 94.04 23.408 94.04 22.48C94.04 21.488 93.84 20.56 93.44 19.696C93.04 18.832 92.464 18.136 91.712 17.608C90.976 17.064 90.096 16.792 89.072 16.792C88 16.792 87.096 17.072 86.36 17.632C85.624 18.192 85.064 18.912 84.68 19.792C84.296 20.656 84.104 21.552 84.104 22.48ZM105.869 31.24C103.709 31.24 102.069 30.608 100.949 29.344C99.8446 28.064 99.2926 26.2 99.2926 23.752C99.2926 21.72 99.5326 20.096 100.013 18.88C100.493 17.648 101.205 16.704 102.149 16.048C103.093 15.392 104.277 14.888 105.701 14.536L111.101 13.168L111.149 15.784L105.821 17.176C104.653 17.528 103.717 18.064 103.013 18.784C102.309 19.504 101.893 20.552 101.765 21.928C102.245 21.128 102.901 20.504 103.733 20.056C104.565 19.608 105.573 19.384 106.757 19.384C107.877 19.384 108.861 19.624 109.709 20.104C110.557 20.584 111.213 21.256 111.677 22.12C112.157 22.968 112.397 23.944 112.397 25.048C112.397 26.248 112.149 27.32 111.653 28.264C111.157 29.192 110.421 29.92 109.445 30.448C108.469 30.976 107.277 31.24 105.869 31.24ZM105.869 28.504C106.861 28.504 107.645 28.208 108.221 27.616C108.813 27.008 109.109 26.208 109.109 25.216C109.109 24.256 108.821 23.472 108.245 22.864C107.669 22.256 106.877 21.952 105.869 21.952C104.925 21.952 104.141 22.24 103.517 22.816C102.909 23.392 102.605 24.192 102.605 25.216C102.605 26.192 102.893 26.984 103.469 27.592C104.045 28.2 104.845 28.504 105.869 28.504ZM120.39 31.24C119.03 31.24 117.854 30.936 116.862 30.328C115.87 29.72 115.102 28.92 114.558 27.928C114.014 26.936 113.742 25.864 113.742 24.712C113.742 23.544 114.006 22.464 114.534 21.472C115.078 20.48 115.846 19.688 116.838 19.096C117.83 18.504 119.006 18.208 120.366 18.208C121.742 18.208 122.91 18.504 123.87 19.096C124.846 19.688 125.574 20.464 126.054 21.424L122.91 22.384C122.35 21.424 121.494 20.944 120.342 20.944C119.718 20.944 119.158 21.104 118.662 21.424C118.166 21.728 117.774 22.168 117.486 22.744C117.198 23.304 117.054 23.96 117.054 24.712C117.054 25.448 117.198 26.104 117.486 26.68C117.79 27.24 118.19 27.688 118.686 28.024C119.182 28.344 119.734 28.504 120.342 28.504C120.918 28.504 121.446 28.368 121.926 28.096C122.422 27.808 122.766 27.448 122.958 27.016L126.102 27.976C125.67 28.92 124.95 29.704 123.942 30.328C122.95 30.936 121.766 31.24 120.39 31.24ZM129.719 36.424C129.383 36.424 129.039 36.384 128.687 36.304C128.351 36.224 127.959 36.104 127.511 35.944L128.135 33.4C128.615 33.608 129.039 33.712 129.407 33.712C130.255 33.712 130.863 33.128 131.231 31.96L131.615 30.928L126.527 18.424H129.863L133.247 27.712L136.223 18.424H139.295L134.159 32.8C133.743 33.952 133.135 34.84 132.335 35.464C131.551 36.104 130.679 36.424 129.719 36.424ZM140.01 34.048V28.192H140.346C140.762 28.192 141.146 28.032 141.498 27.712C141.85 27.392 142.138 26.816 142.362 25.984C142.602 25.152 142.746 23.952 142.794 22.384L142.938 18.424H152.37V28.192H154.122V34.048H151.314V31H142.842V34.048H140.01ZM144.402 28.192H149.154V21.136H145.746L145.674 22.696C145.61 24.296 145.474 25.52 145.266 26.368C145.058 27.216 144.77 27.824 144.402 28.192ZM156.206 31V18.448H159.422V26.704L165.062 18.424H167.99V31H164.774V22.936L159.206 31H156.206ZM173.829 31V21.232H169.845V18.424H181.053V21.232H177.045V31H173.829ZM182.855 31V18.424H186.071V22.384H188.927C190.431 22.384 191.583 22.768 192.383 23.536C193.183 24.304 193.583 25.32 193.583 26.584C193.583 27.88 193.199 28.944 192.431 29.776C191.679 30.592 190.583 31 189.143 31H182.855ZM186.071 28.552H188.639C189.295 28.552 189.775 28.368 190.079 28C190.383 27.616 190.535 27.152 190.535 26.608C190.535 26.08 190.391 25.64 190.103 25.288C189.815 24.92 189.319 24.736 188.615 24.736H186.071V28.552Z" fill="#273A3D"/>
<path d="M578.824 31V13.96H592.624V31H589.336V16.864H582.112V31H578.824ZM601.71 31.24C600.334 31.24 599.15 30.944 598.158 30.352C597.182 29.744 596.43 28.944 595.902 27.952C595.374 26.96 595.11 25.888 595.11 24.736C595.11 23.568 595.374 22.488 595.902 21.496C596.446 20.504 597.206 19.712 598.182 19.12C599.174 18.512 600.35 18.208 601.71 18.208C603.07 18.208 604.238 18.512 605.214 19.12C606.206 19.712 606.966 20.504 607.494 21.496C608.022 22.488 608.286 23.568 608.286 24.736C608.286 25.888 608.022 26.96 607.494 27.952C606.966 28.944 606.206 29.744 605.214 30.352C604.238 30.944 603.07 31.24 601.71 31.24ZM598.422 24.736C598.422 25.472 598.566 26.128 598.854 26.704C599.142 27.264 599.534 27.704 600.03 28.024C600.526 28.344 601.086 28.504 601.71 28.504C602.318 28.504 602.87 28.344 603.366 28.024C603.862 27.688 604.254 27.24 604.542 26.68C604.846 26.104 604.998 25.448 604.998 24.712C604.998 23.992 604.846 23.352 604.542 22.792C604.254 22.216 603.862 21.768 603.366 21.448C602.87 21.112 602.318 20.944 601.71 20.944C601.086 20.944 600.526 21.112 600.03 21.448C599.534 21.768 599.142 22.216 598.854 22.792C598.566 23.352 598.422 24 598.422 24.736ZM616.312 31.24C614.952 31.24 613.776 30.936 612.784 30.328C611.792 29.72 611.024 28.92 610.48 27.928C609.936 26.936 609.664 25.864 609.664 24.712C609.664 23.544 609.928 22.464 610.456 21.472C611 20.48 611.768 19.688 612.76 19.096C613.752 18.504 614.928 18.208 616.288 18.208C617.664 18.208 618.832 18.504 619.792 19.096C620.768 19.688 621.496 20.464 621.976 21.424L618.832 22.384C618.272 21.424 617.416 20.944 616.264 20.944C615.64 20.944 615.08 21.104 614.584 21.424C614.088 21.728 613.696 22.168 613.408 22.744C613.12 23.304 612.976 23.96 612.976 24.712C612.976 25.448 613.12 26.104 613.408 26.68C613.712 27.24 614.112 27.688 614.608 28.024C615.104 28.344 615.656 28.504 616.264 28.504C616.84 28.504 617.368 28.368 617.848 28.096C618.344 27.808 618.688 27.448 618.88 27.016L622.024 27.976C621.592 28.92 620.872 29.704 619.864 30.328C618.872 30.936 617.688 31.24 616.312 31.24ZM626.907 31V21.232H622.923V18.424H634.131V21.232H630.123V31H626.907Z" fill="#273A3D"/>
<path d="M81.776 128V110.96H89C89.784 110.96 90.504 111.12 91.16 111.44C91.832 111.76 92.408 112.192 92.888 112.736C93.368 113.28 93.744 113.888 94.016 114.56C94.288 115.232 94.424 115.92 94.424 116.624C94.424 117.584 94.2 118.496 93.752 119.36C93.304 120.224 92.68 120.928 91.88 121.472C91.096 122.016 90.176 122.288 89.12 122.288H85.088V128H81.776ZM85.088 119.384H88.928C89.536 119.384 90.04 119.136 90.44 118.64C90.856 118.128 91.064 117.456 91.064 116.624C91.064 115.744 90.832 115.064 90.368 114.584C89.904 114.104 89.376 113.864 88.784 113.864H85.088V119.384ZM102.249 128.24C100.889 128.24 99.7131 127.944 98.7211 127.352C97.7451 126.76 96.9851 125.976 96.4411 125C95.8971 124.008 95.6251 122.936 95.6251 121.784C95.6251 120.6 95.8891 119.512 96.4171 118.52C96.9611 117.512 97.7291 116.712 98.7211 116.12C99.7131 115.512 100.897 115.208 102.273 115.208C103.649 115.208 104.825 115.512 105.801 116.12C106.777 116.712 107.521 117.504 108.033 118.496C108.561 119.472 108.825 120.528 108.825 121.664C108.825 122.08 108.801 122.44 108.753 122.744H99.0331C99.1131 123.72 99.4731 124.488 100.113 125.048C100.769 125.608 101.521 125.888 102.369 125.888C103.009 125.888 103.609 125.736 104.169 125.432C104.745 125.112 105.137 124.696 105.345 124.184L108.105 124.952C107.641 125.912 106.897 126.704 105.873 127.328C104.849 127.936 103.641 128.24 102.249 128.24ZM98.9611 120.704H105.537C105.441 119.76 105.081 119 104.457 118.424C103.849 117.832 103.105 117.536 102.225 117.536C101.361 117.536 100.617 117.832 99.9931 118.424C99.3851 119 99.0411 119.76 98.9611 120.704ZM110.784 128V115.424H122.064V128H118.848V118.232H114V128H110.784ZM130.795 128.24C129.419 128.24 128.235 127.944 127.243 127.352C126.267 126.744 125.515 125.944 124.987 124.952C124.459 123.96 124.195 122.888 124.195 121.736C124.195 120.568 124.459 119.488 124.987 118.496C125.531 117.504 126.291 116.712 127.267 116.12C128.259 115.512 129.435 115.208 130.795 115.208C132.155 115.208 133.323 115.512 134.299 116.12C135.291 116.712 136.051 117.504 136.579 118.496C137.107 119.488 137.371 120.568 137.371 121.736C137.371 122.888 137.107 123.96 136.579 124.952C136.051 125.944 135.291 126.744 134.299 127.352C133.323 127.944 132.155 128.24 130.795 128.24ZM127.507 121.736C127.507 122.472 127.651 123.128 127.939 123.704C128.227 124.264 128.619 124.704 129.115 125.024C129.611 125.344 130.171 125.504 130.795 125.504C131.403 125.504 131.955 125.344 132.451 125.024C132.947 124.688 133.339 124.24 133.627 123.68C133.931 123.104 134.083 122.448 134.083 121.712C134.083 120.992 133.931 120.352 133.627 119.792C133.339 119.216 132.947 118.768 132.451 118.448C131.955 118.112 131.403 117.944 130.795 117.944C130.171 117.944 129.611 118.112 129.115 118.448C128.619 118.768 128.227 119.216 127.939 119.792C127.651 120.352 127.507 121 127.507 121.736ZM145.398 128.24C144.038 128.24 142.862 127.936 141.87 127.328C140.878 126.72 140.11 125.92 139.566 124.928C139.022 123.936 138.75 122.864 138.75 121.712C138.75 120.544 139.014 119.464 139.542 118.472C140.086 117.48 140.854 116.688 141.846 116.096C142.838 115.504 144.014 115.208 145.374 115.208C146.75 115.208 147.918 115.504 148.878 116.096C149.854 116.688 150.582 117.464 151.062 118.424L147.918 119.384C147.358 118.424 146.502 117.944 145.35 117.944C144.726 117.944 144.166 118.104 143.67 118.424C143.174 118.728 142.782 119.168 142.494 119.744C142.206 120.304 142.062 120.96 142.062 121.712C142.062 122.448 142.206 123.104 142.494 123.68C142.798 124.24 143.198 124.688 143.694 125.024C144.19 125.344 144.742 125.504 145.35 125.504C145.926 125.504 146.454 125.368 146.934 125.096C147.43 124.808 147.774 124.448 147.966 124.016L151.11 124.976C150.678 125.92 149.958 126.704 148.95 127.328C147.958 127.936 146.774 128.24 145.398 128.24ZM155.993 128V118.232H152.009V115.424H163.217V118.232H159.209V128H155.993ZM170.784 128V115.424H177.792C178.656 115.424 179.352 115.568 179.88 115.856C180.424 116.144 180.824 116.52 181.08 116.984C181.336 117.448 181.464 117.944 181.464 118.472C181.464 119.176 181.304 119.792 180.984 120.32C180.664 120.848 180.184 121.256 179.544 121.544C180.28 121.736 180.88 122.088 181.344 122.6C181.808 123.112 182.04 123.776 182.04 124.592C182.04 125.776 181.624 126.64 180.792 127.184C179.976 127.728 178.864 128 177.456 128H170.784ZM173.832 120.656H176.976C177.408 120.656 177.76 120.504 178.032 120.2C178.304 119.88 178.44 119.504 178.44 119.072C178.44 118.656 178.304 118.312 178.032 118.04C177.776 117.752 177.432 117.608 177 117.608H173.832V120.656ZM173.832 125.816H177.36C177.808 125.816 178.176 125.664 178.464 125.36C178.768 125.056 178.92 124.68 178.92 124.232C178.92 123.784 178.776 123.416 178.488 123.128C178.2 122.824 177.832 122.672 177.384 122.672H173.832V125.816ZM196 128.24C194.64 128.24 193.464 127.936 192.472 127.328C191.48 126.72 190.712 125.92 190.168 124.928C189.624 123.936 189.352 122.864 189.352 121.712C189.352 120.544 189.616 119.464 190.144 118.472C190.688 117.48 191.456 116.688 192.448 116.096C193.44 115.504 194.616 115.208 195.976 115.208C197.352 115.208 198.52 115.504 199.48 116.096C200.456 116.688 201.184 117.464 201.664 118.424L198.52 119.384C197.96 118.424 197.104 117.944 195.952 117.944C195.328 117.944 194.768 118.104 194.272 118.424C193.776 118.728 193.384 119.168 193.096 119.744C192.808 120.304 192.664 120.96 192.664 121.712C192.664 122.448 192.808 123.104 193.096 123.68C193.4 124.24 193.8 124.688 194.296 125.024C194.792 125.344 195.344 125.504 195.952 125.504C196.528 125.504 197.056 125.368 197.536 125.096C198.032 124.808 198.376 124.448 198.568 124.016L201.712 124.976C201.28 125.92 200.56 126.704 199.552 127.328C198.56 127.936 197.376 128.24 196 128.24ZM209.381 128.24C208.005 128.24 206.821 127.944 205.829 127.352C204.853 126.744 204.101 125.944 203.573 124.952C203.045 123.96 202.781 122.888 202.781 121.736C202.781 120.568 203.045 119.488 203.573 118.496C204.117 117.504 204.877 116.712 205.853 116.12C206.845 115.512 208.021 115.208 209.381 115.208C210.741 115.208 211.909 115.512 212.885 116.12C213.877 116.712 214.637 117.504 215.165 118.496C215.693 119.488 215.957 120.568 215.957 121.736C215.957 122.888 215.693 123.96 215.165 124.952C214.637 125.944 213.877 126.744 212.885 127.352C211.909 127.944 210.741 128.24 209.381 128.24ZM206.093 121.736C206.093 122.472 206.237 123.128 206.525 123.704C206.813 124.264 207.205 124.704 207.701 125.024C208.197 125.344 208.757 125.504 209.381 125.504C209.989 125.504 210.541 125.344 211.037 125.024C211.533 124.688 211.925 124.24 212.213 123.68C212.517 123.104 212.669 122.448 212.669 121.712C212.669 120.992 212.517 120.352 212.213 119.792C211.925 119.216 211.533 118.768 211.037 118.448C210.541 118.112 209.989 117.944 209.381 117.944C208.757 117.944 208.197 118.112 207.701 118.448C207.205 118.768 206.813 119.216 206.525 119.792C206.237 120.352 206.093 121 206.093 121.736ZM227.92 131.048V128H218.128V115.424H221.344V125.192H225.76V115.424H228.976V125.192H230.752V131.048H227.92ZM238.703 128.24C237.343 128.24 236.167 127.936 235.175 127.328C234.183 126.72 233.415 125.92 232.871 124.928C232.327 123.936 232.055 122.864 232.055 121.712C232.055 120.544 232.319 119.464 232.847 118.472C233.391 117.48 234.159 116.688 235.151 116.096C236.143 115.504 237.319 115.208 238.679 115.208C240.055 115.208 241.223 115.504 242.183 116.096C243.159 116.688 243.887 117.464 244.367 118.424L241.223 119.384C240.663 118.424 239.807 117.944 238.655 117.944C238.031 117.944 237.471 118.104 236.975 118.424C236.479 118.728 236.087 119.168 235.799 119.744C235.511 120.304 235.367 120.96 235.367 121.712C235.367 122.448 235.511 123.104 235.799 123.68C236.103 124.24 236.503 124.688 236.999 125.024C237.495 125.344 238.047 125.504 238.655 125.504C239.231 125.504 239.759 125.368 240.239 125.096C240.735 124.808 241.079 124.448 241.271 124.016L244.415 124.976C243.983 125.92 243.263 126.704 242.255 127.328C241.263 127.936 240.079 128.24 238.703 128.24ZM252.109 128.24C250.749 128.24 249.573 127.944 248.581 127.352C247.605 126.76 246.845 125.976 246.301 125C245.757 124.008 245.485 122.936 245.485 121.784C245.485 120.6 245.749 119.512 246.277 118.52C246.821 117.512 247.589 116.712 248.581 116.12C249.573 115.512 250.757 115.208 252.133 115.208C253.509 115.208 254.685 115.512 255.661 116.12C256.637 116.712 257.381 117.504 257.893 118.496C258.421 119.472 258.685 120.528 258.685 121.664C258.685 122.08 258.661 122.44 258.613 122.744H248.893C248.973 123.72 249.333 124.488 249.973 125.048C250.629 125.608 251.381 125.888 252.229 125.888C252.869 125.888 253.469 125.736 254.029 125.432C254.605 125.112 254.997 124.696 255.205 124.184L257.965 124.952C257.501 125.912 256.757 126.704 255.733 127.328C254.709 127.936 253.501 128.24 252.109 128.24ZM248.821 120.704H255.397C255.301 119.76 254.941 119 254.317 118.424C253.709 117.832 252.965 117.536 252.085 117.536C251.221 117.536 250.477 117.832 249.853 118.424C249.245 119 248.901 119.76 248.821 120.704ZM263.548 128V118.232H259.564V115.424H270.772V118.232H266.764V128H263.548ZM272.573 128V115.448H275.789V123.704L281.429 115.424H284.357V128H281.141V119.936L275.573 128H272.573Z" fill="#273A3D"/>
<path d="M583.408 110.96H586.768L593.032 128H589.624L588.04 123.752H582.088L580.528 128H577.12L583.408 110.96ZM587.44 121.424L585.088 114.392L582.64 121.424H587.44ZM594.589 128V115.424H605.869V128H602.653V118.232H597.805V128H594.589ZM608.792 128V115.424H615.8C616.664 115.424 617.36 115.568 617.888 115.856C618.432 116.144 618.832 116.52 619.088 116.984C619.344 117.448 619.472 117.944 619.472 118.472C619.472 119.176 619.312 119.792 618.992 120.32C618.672 120.848 618.192 121.256 617.552 121.544C618.288 121.736 618.888 122.088 619.352 122.6C619.816 123.112 620.048 123.776 620.048 124.592C620.048 125.776 619.632 126.64 618.8 127.184C617.984 127.728 616.872 128 615.464 128H608.792ZM611.84 120.656H614.984C615.416 120.656 615.768 120.504 616.04 120.2C616.312 119.88 616.448 119.504 616.448 119.072C616.448 118.656 616.312 118.312 616.04 118.04C615.784 117.752 615.44 117.608 615.008 117.608H611.84V120.656ZM611.84 125.816H615.368C615.816 125.816 616.184 125.664 616.472 125.36C616.776 125.056 616.928 124.68 616.928 124.232C616.928 123.784 616.784 123.416 616.496 123.128C616.208 122.824 615.84 122.672 615.392 122.672H611.84V125.816ZM628.194 128.24C626.818 128.24 625.634 127.944 624.642 127.352C623.666 126.744 622.914 125.944 622.386 124.952C621.858 123.96 621.594 122.888 621.594 121.736C621.594 120.568 621.858 119.488 622.386 118.496C622.93 117.504 623.69 116.712 624.666 116.12C625.658 115.512 626.834 115.208 628.194 115.208C629.554 115.208 630.722 115.512 631.698 116.12C632.69 116.712 633.45 117.504 633.978 118.496C634.506 119.488 634.77 120.568 634.77 121.736C634.77 122.888 634.506 123.96 633.978 124.952C633.45 125.944 632.69 126.744 631.698 127.352C630.722 127.944 629.554 128.24 628.194 128.24ZM624.906 121.736C624.906 122.472 625.05 123.128 625.338 123.704C625.626 124.264 626.018 124.704 626.514 125.024C627.01 125.344 627.57 125.504 628.194 125.504C628.802 125.504 629.354 125.344 629.85 125.024C630.346 124.688 630.738 124.24 631.026 123.68C631.33 123.104 631.482 122.448 631.482 121.712C631.482 120.992 631.33 120.352 631.026 119.792C630.738 119.216 630.346 118.768 629.85 118.448C629.354 118.112 628.802 117.944 628.194 117.944C627.57 117.944 627.01 118.112 626.514 118.448C626.018 118.768 625.626 119.216 625.338 119.792C625.05 120.352 624.906 121 624.906 121.736ZM638.344 133.424C638.008 133.424 637.664 133.384 637.312 133.304C636.976 133.224 636.584 133.104 636.136 132.944L636.76 130.4C637.24 130.608 637.664 130.712 638.032 130.712C638.88 130.712 639.488 130.128 639.856 128.96L640.24 127.928L635.152 115.424H638.488L641.872 124.712L644.848 115.424H647.92L642.784 129.8C642.368 130.952 641.76 131.84 640.96 132.464C640.176 133.104 639.304 133.424 638.344 133.424ZM652.571 128V118.232H648.587V115.424H659.795V118.232H655.787V128H652.571Z" fill="#273A3D"/>
<path d="M577.72 228.264V222.096H578.632C579.192 222.096 579.664 221.792 580.048 221.184C580.432 220.576 580.736 219.592 580.96 218.232C581.184 216.872 581.328 215.072 581.392 212.832L581.536 207.96H592.888V222.096H595.144V228.264H592.24V225H580.624V228.264H577.72ZM582.592 222.096H589.6V210.864H584.536L584.488 213.264C584.408 215.76 584.232 217.712 583.96 219.12C583.704 220.528 583.248 221.52 582.592 222.096ZM596.538 221.28C596.538 220.464 596.762 219.752 597.21 219.144C597.674 218.52 598.314 218.04 599.13 217.704C599.946 217.368 600.882 217.2 601.938 217.2C602.466 217.2 603.002 217.248 603.546 217.344C604.09 217.424 604.562 217.544 604.962 217.704V217.032C604.962 216.232 604.722 215.616 604.242 215.184C603.778 214.752 603.082 214.536 602.154 214.536C601.466 214.536 600.81 214.656 600.186 214.896C599.562 215.136 598.906 215.488 598.218 215.952L597.186 213.84C598.018 213.296 598.866 212.888 599.73 212.616C600.61 212.344 601.53 212.208 602.49 212.208C604.282 212.208 605.674 212.656 606.666 213.552C607.674 214.448 608.178 215.728 608.178 217.392V221.4C608.178 221.752 608.234 222 608.346 222.144C608.458 222.272 608.658 222.352 608.946 222.384V225C608.658 225.064 608.394 225.104 608.154 225.12C607.93 225.152 607.738 225.168 607.578 225.168C606.938 225.168 606.45 225.024 606.114 224.736C605.778 224.448 605.578 224.096 605.514 223.68L605.442 223.032C604.882 223.752 604.194 224.304 603.378 224.688C602.578 225.056 601.754 225.24 600.906 225.24C600.058 225.24 599.306 225.072 598.65 224.736C597.994 224.384 597.474 223.912 597.09 223.32C596.722 222.712 596.538 222.032 596.538 221.28ZM604.362 221.928C604.762 221.544 604.962 221.176 604.962 220.824V219.552C604.13 219.216 603.29 219.048 602.442 219.048C601.594 219.048 600.906 219.232 600.378 219.6C599.85 219.952 599.586 220.424 599.586 221.016C599.586 221.496 599.778 221.928 600.162 222.312C600.546 222.696 601.098 222.888 601.818 222.888C602.298 222.888 602.762 222.8 603.21 222.624C603.674 222.448 604.058 222.216 604.362 221.928ZM612.586 230.424C612.25 230.424 611.906 230.384 611.554 230.304C611.218 230.224 610.826 230.104 610.378 229.944L611.002 227.4C611.482 227.608 611.906 227.712 612.274 227.712C613.122 227.712 613.73 227.128 614.098 225.96L614.482 224.928L609.394 212.424H612.73L616.114 221.712L619.09 212.424H622.162L617.026 226.8C616.61 227.952 616.002 228.84 615.202 229.464C614.418 230.104 613.546 230.424 612.586 230.424ZM623.909 225V212.424H627.125V217.224H632.213V212.424H635.429V225H632.213V219.912H627.125V225H623.909ZM638.37 225V212.424H645.378C646.242 212.424 646.938 212.568 647.466 212.856C648.01 213.144 648.41 213.52 648.666 213.984C648.922 214.448 649.05 214.944 649.05 215.472C649.05 216.176 648.89 216.792 648.57 217.32C648.25 217.848 647.77 218.256 647.13 218.544C647.866 218.736 648.466 219.088 648.93 219.6C649.394 220.112 649.626 220.776 649.626 221.592C649.626 222.776 649.21 223.64 648.378 224.184C647.562 224.728 646.45 225 645.042 225H638.37ZM641.418 217.656H644.562C644.994 217.656 645.346 217.504 645.618 217.2C645.89 216.88 646.026 216.504 646.026 216.072C646.026 215.656 645.89 215.312 645.618 215.04C645.362 214.752 645.018 214.608 644.586 214.608H641.418V217.656ZM641.418 222.816H644.946C645.394 222.816 645.762 222.664 646.05 222.36C646.354 222.056 646.506 221.68 646.506 221.232C646.506 220.784 646.362 220.416 646.074 220.128C645.786 219.824 645.418 219.672 644.97 219.672H641.418V222.816ZM657.772 225.24C656.396 225.24 655.212 224.944 654.22 224.352C653.244 223.744 652.492 222.944 651.964 221.952C651.436 220.96 651.172 219.888 651.172 218.736C651.172 217.568 651.436 216.488 651.964 215.496C652.508 214.504 653.268 213.712 654.244 213.12C655.236 212.512 656.412 212.208 657.772 212.208C659.132 212.208 660.3 212.512 661.276 213.12C662.268 213.712 663.028 214.504 663.556 215.496C664.084 216.488 664.348 217.568 664.348 218.736C664.348 219.888 664.084 220.96 663.556 221.952C663.028 222.944 662.268 223.744 661.276 224.352C660.3 224.944 659.132 225.24 657.772 225.24ZM654.484 218.736C654.484 219.472 654.628 220.128 654.916 220.704C655.204 221.264 655.596 221.704 656.092 222.024C656.588 222.344 657.148 222.504 657.772 222.504C658.38 222.504 658.932 222.344 659.428 222.024C659.924 221.688 660.316 221.24 660.604 220.68C660.908 220.104 661.06 219.448 661.06 218.712C661.06 217.992 660.908 217.352 660.604 216.792C660.316 216.216 659.924 215.768 659.428 215.448C658.932 215.112 658.38 214.944 657.772 214.944C657.148 214.944 656.588 215.112 656.092 215.448C655.596 215.768 655.204 216.216 654.916 216.792C654.628 217.352 654.484 218 654.484 218.736ZM667.922 230.424C667.586 230.424 667.242 230.384 666.89 230.304C666.554 230.224 666.162 230.104 665.714 229.944L666.338 227.4C666.818 227.608 667.242 227.712 667.61 227.712C668.458 227.712 669.066 227.128 669.434 225.96L669.818 224.928L664.73 212.424H668.066L671.45 221.712L674.426 212.424H677.498L672.362 226.8C671.946 227.952 671.338 228.84 670.538 229.464C669.754 230.104 668.882 230.424 667.922 230.424ZM682.149 225V215.232H678.165V212.424H689.373V215.232H685.365V225H682.149Z" fill="#273A3D"/>
<path d="M87.296 225.168C85.904 225.168 84.648 224.888 83.528 224.328C82.424 223.768 81.56 222.984 80.936 221.976L83.408 220.44C83.792 221.064 84.304 221.552 84.944 221.904C85.6 222.256 86.36 222.432 87.224 222.432C88.232 222.432 88.992 222.208 89.504 221.76C90.016 221.312 90.272 220.72 90.272 219.984C90.272 219.264 90.032 218.688 89.552 218.256C89.072 217.808 88.336 217.584 87.344 217.584H85.304V215.064H87.368C88.136 215.064 88.728 214.864 89.144 214.464C89.56 214.064 89.768 213.552 89.768 212.928C89.768 212.288 89.544 211.768 89.096 211.368C88.648 210.968 87.976 210.768 87.08 210.768C86.2 210.768 85.448 210.944 84.824 211.296C84.216 211.632 83.744 212.08 83.408 212.64L81.032 210.96C81.672 210.016 82.488 209.256 83.48 208.68C84.488 208.104 85.736 207.816 87.224 207.816C88.984 207.816 90.376 208.216 91.4 209.016C92.44 209.816 92.96 210.952 92.96 212.424C92.96 213.208 92.768 213.944 92.384 214.632C92.016 215.304 91.424 215.824 90.608 216.192C91.568 216.48 92.304 216.992 92.816 217.728C93.344 218.464 93.608 219.32 93.608 220.296C93.608 221.352 93.336 222.24 92.792 222.96C92.248 223.68 91.496 224.232 90.536 224.616C89.592 224.984 88.512 225.168 87.296 225.168ZM95.1313 221.28C95.1313 220.464 95.3553 219.752 95.8033 219.144C96.2673 218.52 96.9073 218.04 97.7233 217.704C98.5393 217.368 99.4753 217.2 100.531 217.2C101.059 217.2 101.595 217.248 102.139 217.344C102.683 217.424 103.155 217.544 103.555 217.704V217.032C103.555 216.232 103.315 215.616 102.835 215.184C102.371 214.752 101.675 214.536 100.747 214.536C100.059 214.536 99.4033 214.656 98.7793 214.896C98.1553 215.136 97.4993 215.488 96.8113 215.952L95.7793 213.84C96.6113 213.296 97.4593 212.888 98.3233 212.616C99.2033 212.344 100.123 212.208 101.083 212.208C102.875 212.208 104.267 212.656 105.259 213.552C106.267 214.448 106.771 215.728 106.771 217.392V221.4C106.771 221.752 106.827 222 106.939 222.144C107.051 222.272 107.251 222.352 107.539 222.384V225C107.251 225.064 106.987 225.104 106.747 225.12C106.523 225.152 106.331 225.168 106.171 225.168C105.531 225.168 105.043 225.024 104.707 224.736C104.371 224.448 104.171 224.096 104.107 223.68L104.035 223.032C103.475 223.752 102.787 224.304 101.971 224.688C101.171 225.056 100.347 225.24 99.4993 225.24C98.6513 225.24 97.8993 225.072 97.2433 224.736C96.5873 224.384 96.0673 223.912 95.6833 223.32C95.3153 222.712 95.1313 222.032 95.1313 221.28ZM102.955 221.928C103.355 221.544 103.555 221.176 103.555 220.824V219.552C102.723 219.216 101.883 219.048 101.035 219.048C100.187 219.048 99.4993 219.232 98.9713 219.6C98.4433 219.952 98.1793 220.424 98.1793 221.016C98.1793 221.496 98.3713 221.928 98.7553 222.312C99.1393 222.696 99.6913 222.888 100.411 222.888C100.891 222.888 101.355 222.8 101.803 222.624C102.267 222.448 102.651 222.216 102.955 221.928ZM109.777 225V212.424H112.993V217.176H114.073L117.481 212.424H120.984L116.521 218.496L121.465 225H117.793L114.025 220.008H112.993V225H109.777ZM122.552 225.168V222.312C123.064 222.296 123.504 222.128 123.872 221.808C124.256 221.488 124.56 220.904 124.784 220.056C125.008 219.208 125.152 217.984 125.216 216.384L125.384 212.424H134.816V225H131.6V215.232H128.216L128.168 216.696C128.072 218.888 127.808 220.6 127.376 221.832C126.96 223.048 126.352 223.904 125.552 224.4C124.752 224.896 123.752 225.152 122.552 225.168ZM136.873 221.28C136.873 220.464 137.097 219.752 137.545 219.144C138.009 218.52 138.649 218.04 139.465 217.704C140.281 217.368 141.217 217.2 142.273 217.2C142.801 217.2 143.337 217.248 143.881 217.344C144.425 217.424 144.897 217.544 145.297 217.704V217.032C145.297 216.232 145.057 215.616 144.577 215.184C144.113 214.752 143.417 214.536 142.489 214.536C141.801 214.536 141.145 214.656 140.521 214.896C139.897 215.136 139.241 215.488 138.553 215.952L137.521 213.84C138.353 213.296 139.201 212.888 140.065 212.616C140.945 212.344 141.865 212.208 142.825 212.208C144.617 212.208 146.009 212.656 147.001 213.552C148.009 214.448 148.513 215.728 148.513 217.392V221.4C148.513 221.752 148.569 222 148.681 222.144C148.793 222.272 148.993 222.352 149.281 222.384V225C148.993 225.064 148.729 225.104 148.489 225.12C148.265 225.152 148.073 225.168 147.913 225.168C147.273 225.168 146.785 225.024 146.449 224.736C146.113 224.448 145.913 224.096 145.849 223.68L145.777 223.032C145.217 223.752 144.529 224.304 143.713 224.688C142.913 225.056 142.089 225.24 141.241 225.24C140.393 225.24 139.641 225.072 138.985 224.736C138.329 224.384 137.809 223.912 137.425 223.32C137.057 222.712 136.873 222.032 136.873 221.28ZM144.697 221.928C145.097 221.544 145.297 221.176 145.297 220.824V219.552C144.465 219.216 143.625 219.048 142.777 219.048C141.929 219.048 141.241 219.232 140.713 219.6C140.185 219.952 139.921 220.424 139.921 221.016C139.921 221.496 140.113 221.928 140.497 222.312C140.881 222.696 141.433 222.888 142.153 222.888C142.633 222.888 143.097 222.8 143.545 222.624C144.009 222.448 144.393 222.216 144.697 221.928ZM150.487 228.048V222.192H150.823C151.239 222.192 151.623 222.032 151.975 221.712C152.327 221.392 152.615 220.816 152.839 219.984C153.079 219.152 153.223 217.952 153.271 216.384L153.415 212.424H162.847V222.192H164.599V228.048H161.791V225H153.319V228.048H150.487ZM154.879 222.192H159.631V215.136H156.223L156.151 216.696C156.087 218.296 155.951 219.52 155.743 220.368C155.535 221.216 155.247 221.824 154.879 222.192ZM166.683 225V212.424H169.899V217.176H170.979L174.387 212.424H177.891L173.427 218.496L178.371 225H174.699L170.931 220.008H169.899V225H166.683ZM179.389 221.28C179.389 220.464 179.613 219.752 180.061 219.144C180.525 218.52 181.165 218.04 181.981 217.704C182.797 217.368 183.733 217.2 184.789 217.2C185.317 217.2 185.853 217.248 186.397 217.344C186.941 217.424 187.413 217.544 187.813 217.704V217.032C187.813 216.232 187.573 215.616 187.093 215.184C186.629 214.752 185.933 214.536 185.005 214.536C184.317 214.536 183.661 214.656 183.037 214.896C182.413 215.136 181.757 215.488 181.069 215.952L180.037 213.84C180.869 213.296 181.717 212.888 182.581 212.616C183.461 212.344 184.381 212.208 185.341 212.208C187.133 212.208 188.525 212.656 189.517 213.552C190.525 214.448 191.029 215.728 191.029 217.392V221.4C191.029 221.752 191.085 222 191.197 222.144C191.309 222.272 191.509 222.352 191.797 222.384V225C191.509 225.064 191.245 225.104 191.005 225.12C190.781 225.152 190.589 225.168 190.429 225.168C189.789 225.168 189.301 225.024 188.965 224.736C188.629 224.448 188.429 224.096 188.365 223.68L188.293 223.032C187.733 223.752 187.045 224.304 186.229 224.688C185.429 225.056 184.605 225.24 183.757 225.24C182.909 225.24 182.157 225.072 181.501 224.736C180.845 224.384 180.325 223.912 179.941 223.32C179.573 222.712 179.389 222.032 179.389 221.28ZM187.213 221.928C187.613 221.544 187.813 221.176 187.813 220.824V219.552C186.981 219.216 186.141 219.048 185.293 219.048C184.445 219.048 183.757 219.232 183.229 219.6C182.701 219.952 182.437 220.424 182.437 221.016C182.437 221.496 182.629 221.928 183.013 222.312C183.397 222.696 183.949 222.888 184.669 222.888C185.149 222.888 185.613 222.8 186.061 222.624C186.525 222.448 186.909 222.216 187.213 221.928Z" fill="#273A3D"/>
<path d="M40.833 35.0553L38.4443 32.6666H8.16634V8.16659H40.833V35.0553ZM40.833 4.08325H8.16634C5.92051 4.08325 4.08301 5.92075 4.08301 8.16659V32.6666C4.08301 34.9124 5.92051 36.7499 8.16634 36.7499H36.7497L44.9163 44.9166V8.16659C44.9163 5.92075 43.0788 4.08325 40.833 4.08325Z" fill="#273A3D"/>
<path d="M37.6667 132.635C35.8089 132.635 34.1467 133.372 32.8756 134.529L15.4467 124.32C15.5689 123.755 15.6667 123.189 15.6667 122.598C15.6667 122.008 15.5689 121.442 15.4467 120.877L32.68 110.767C34 111.996 35.7356 112.759 37.6667 112.759C41.7244 112.759 45 109.463 45 105.38C45 101.296 41.7244 98 37.6667 98C33.6089 98 30.3333 101.296 30.3333 105.38C30.3333 105.97 30.4311 106.536 30.5533 107.101L13.32 117.211C12 115.981 10.2644 115.219 8.33333 115.219C4.27556 115.219 1 118.515 1 122.598C1 126.682 4.27556 129.978 8.33333 129.978C10.2644 129.978 12 129.215 13.32 127.985L30.7244 138.218C30.6022 138.735 30.5289 139.276 30.5289 139.817C30.5289 143.778 33.7311 147 37.6667 147C41.6022 147 44.8044 143.778 44.8044 139.817C44.8044 135.857 41.6022 132.635 37.6667 132.635ZM37.6667 102.92C39.0111 102.92 40.1111 104.027 40.1111 105.38C40.1111 106.732 39.0111 107.839 37.6667 107.839C36.3222 107.839 35.2222 106.732 35.2222 105.38C35.2222 104.027 36.3222 102.92 37.6667 102.92ZM8.33333 125.058C6.98889 125.058 5.88889 123.951 5.88889 122.598C5.88889 121.245 6.98889 120.139 8.33333 120.139C9.67778 120.139 10.7778 121.245 10.7778 122.598C10.7778 123.951 9.67778 125.058 8.33333 125.058ZM37.6667 142.326C36.3222 142.326 35.2222 141.219 35.2222 139.866C35.2222 138.514 36.3222 137.407 37.6667 137.407C39.0111 137.407 40.1111 138.514 40.1111 139.866C40.1111 141.219 39.0111 142.326 37.6667 142.326Z" fill="#273A3D"/>
<path d="M9.16634 207.25H5.08301V235.833C5.08301 238.079 6.92051 239.917 9.16634 239.917H37.7497V235.833H9.16634V207.25ZM41.833 199.083H17.333C15.0872 199.083 13.2497 200.921 13.2497 203.167V227.667C13.2497 229.912 15.0872 231.75 17.333 231.75H41.833C44.0788 231.75 45.9163 229.912 45.9163 227.667V203.167C45.9163 200.921 44.0788 199.083 41.833 199.083ZM35.708 203.167V213.375L33.6663 211.844L31.6247 213.375V203.167H35.708ZM41.833 227.667H17.333V203.167H27.5413V221.542L33.6663 216.948L39.7913 221.542V203.167H41.833V227.667Z" fill="#273A3D"/>
<path d="M518.5 137C518.5 138.381 519.619 139.5 521 139.5C522.381 139.5 523.5 138.381 523.5 137L518.5 137ZM522.768 101.232C521.791 100.256 520.209 100.256 519.232 101.232L503.322 117.142C502.346 118.118 502.346 119.701 503.322 120.678C504.299 121.654 505.882 121.654 506.858 120.678L521 106.536L535.142 120.678C536.118 121.654 537.701 121.654 538.678 120.678C539.654 119.701 539.654 118.118 538.678 117.142L522.768 101.232ZM523.5 137L523.5 117.5L518.5 117.5L518.5 137L523.5 137ZM523.5 117.5L523.5 103L518.5 103L518.5 117.5L523.5 117.5Z" fill="#273A3D"/>
<path d="M523.5 204C523.5 202.619 522.381 201.5 521 201.5C519.619 201.5 518.5 202.619 518.5 204L523.5 204ZM519.232 239.768C520.209 240.744 521.791 240.744 522.768 239.768L538.678 223.858C539.654 222.882 539.654 221.299 538.678 220.322C537.701 219.346 536.118 219.346 535.142 220.322L521 234.464L506.858 220.322C505.882 219.346 504.299 219.346 503.322 220.322C502.346 221.299 502.346 222.882 503.322 223.858L519.232 239.768ZM518.5 204L518.5 223.5L523.5 223.5L523.5 204L518.5 204ZM518.5 223.5L518.5 238L523.5 238L523.5 223.5L518.5 223.5Z" fill="#273A3D"/>
<path d="M522.875 20.55H519.125V26.4H513.5V30.3H519.125V36.15H522.875V30.3H528.5V26.4H522.875V20.55ZM524.75 3H509.75C507.687 3 506 4.755 506 6.9V38.1C506 40.245 507.669 42 509.731 42H532.25C534.313 42 536 40.245 536 38.1V14.7L524.75 3ZM532.25 38.1H509.75V6.9H522.875V16.65H532.25V38.1Z" fill="#273A3D"/>
</svg>
