<svg width="9" height="150" viewBox="0 0 9 150" fill="none" xmlns="http://www.w3.org/2000/svg">
<path d="M6.216 16.72C6.216 17.296 6.016 17.784 5.616 18.184C5.216 18.584 4.736 18.784 4.176 18.784C3.616 18.784 3.128 18.584 2.712 18.184C2.312 17.784 2.112 17.296 2.112 16.72C2.112 16.176 2.312 15.704 2.712 15.304C3.128 14.888 3.616 14.68 4.176 14.68C4.736 14.68 5.216 14.888 5.616 15.304C6.016 15.704 6.216 16.176 6.216 16.72Z" fill="#273A3D"/>
<path d="M6.216 133.72C6.216 134.296 6.016 134.784 5.616 135.184C5.216 135.584 4.736 135.784 4.176 135.784C3.616 135.784 3.128 135.584 2.712 135.184C2.312 134.784 2.112 134.296 2.112 133.72C2.112 133.176 2.312 132.704 2.712 132.304C3.128 131.888 3.616 131.68 4.176 131.68C4.736 131.68 5.216 131.888 5.616 132.304C6.016 132.704 6.216 133.176 6.216 133.72Z" fill="#273A3D"/>
</svg>
