<svg width="45" height="34" viewBox="0 0 45 34" fill="none" xmlns="http://www.w3.org/2000/svg">
<path d="M33.7654 0C29.7749 0 25.4775 0.817062 22.5102 3.06398C19.543 0.817062 15.2456 0 11.2551 0C8.28786 0 5.13643 0.449384 2.49659 1.6137C1.00273 2.28777 0 3.73806 0 5.39261V28.4338C0 31.0892 2.49659 33.0502 5.07503 32.3965C7.08049 31.8859 9.20873 31.6612 11.2551 31.6612C14.4475 31.6612 17.8445 32.1922 20.5866 33.5404C21.8145 34.1532 23.206 34.1532 24.4134 33.5404C27.1555 32.1718 30.5525 31.6612 33.7449 31.6612C35.7913 31.6612 37.9195 31.8859 39.925 32.3965C42.5034 33.0706 45 31.1096 45 28.4338V5.39261C45 3.73806 43.9973 2.28777 42.5034 1.6137C39.884 0.449384 36.7326 0 33.7654 0ZM40.9277 26.003C40.9277 27.2899 39.7408 28.2295 38.472 28.0048C36.9372 27.7188 35.3411 27.5963 33.7654 27.5963C30.2865 27.5963 25.2729 28.924 22.5102 30.6603V7.14929C25.2729 5.41304 30.2865 4.08531 33.7654 4.08531C35.648 4.08531 37.5102 4.26915 39.2906 4.65725C40.2319 4.86152 40.9277 5.69901 40.9277 6.65906V26.003Z" fill="#273A3D"/>
</svg>
