<svg width="127" height="52" viewBox="0 0 127 52" fill="none" xmlns="http://www.w3.org/2000/svg">
<path fill-rule="evenodd" clip-rule="evenodd" d="M72.8355 17.9316L65.2718 17.9316C63.1439 17.9316 61.4189 19.6799 61.4189 21.8364C61.4189 23.993 63.1439 25.7412 65.2718 25.7412H72.8355C74.9634 25.7412 76.6884 23.993 76.6884 21.8364C76.6884 19.6799 74.9634 17.9316 72.8355 17.9316ZM65.2718 13.5675C60.7657 13.5675 57.1128 17.2696 57.1128 21.8364C57.1128 26.4033 60.7657 30.1054 65.2718 30.1054L72.8355 30.1054C77.3416 30.1054 80.9945 26.4033 80.9945 21.8364C80.9945 17.2696 77.3416 13.5675 72.8355 13.5675H65.2718Z" fill="black"/>
<path d="M65.3342 25.002C63.6095 25.002 62.2114 23.5846 62.2114 21.8362C62.2114 20.0879 63.6095 18.6705 65.3342 18.6705C67.0589 18.6705 68.457 20.0879 68.457 21.8362C68.457 23.5846 67.0589 25.002 65.3342 25.002Z" fill="black"/>
<path d="M65.3342 25.002C63.6095 25.002 62.2114 23.5846 62.2114 21.8362C62.2114 20.0879 63.6095 18.6705 65.3342 18.6705C67.0589 18.6705 68.457 20.0879 68.457 21.8362C68.457 23.5846 67.0589 25.002 65.3342 25.002Z" fill="url(#paint0_linear)"/>
<path d="M61.1099 38.3206V33.9613H49.9831V13.6065H45.354V38.3206H61.1099Z" fill="black"/>
<path d="M9.66358 38.2816C14.3602 38.2816 18.3135 36.1878 18.3135 31.3651C18.3135 27.6751 15.9652 25.7529 14.1406 25.4268C15.5766 24.9806 17.5195 23.3158 17.5195 20.1064C17.5195 15.7471 13.8703 13.5675 9.41016 13.5675H0V38.2816H9.66358ZM9.51153 17.9268C11.3699 17.9268 12.8735 18.5275 12.8735 20.6728C12.8735 22.8181 11.3699 23.4016 9.51153 23.4016H4.62906V17.9268H9.51153ZM4.62906 33.9223V27.6923H9.66358C11.6571 27.6923 13.7182 28.1385 13.7182 30.7987C13.7182 33.4589 11.6571 33.9223 9.66358 33.9223H4.62906Z" fill="black"/>
<path d="M32.4146 38.2816C37.1112 38.2816 41.0645 36.1878 41.0645 31.3651C41.0645 27.6751 38.7162 25.7529 36.8916 25.4268C38.3276 24.9806 40.2704 23.3158 40.2704 20.1064C40.2704 15.7471 36.6213 13.5675 32.1611 13.5675H22.751V38.2816H32.4146ZM32.2625 17.9268C34.1209 17.9268 35.6245 18.5275 35.6245 20.6728C35.6245 22.8181 34.1209 23.4016 32.2625 23.4016H27.38V17.9268H32.2625ZM27.38 33.9223V27.6923H32.4146C34.4081 27.6923 36.4692 28.1385 36.4692 30.7987C36.4692 33.4589 34.4081 33.9223 32.4146 33.9223H27.38Z" fill="black"/>
<path d="M90.1256 38.3585V29.9571H95.3237C101.32 29.9571 104.191 26.9271 104.191 21.7623C104.191 16.5975 101.32 13.5675 95.3237 13.5675H85.4712V38.3585H90.1256ZM90.1256 17.9403H95.2897C98.0756 17.9403 99.5365 19.266 99.5365 21.7623C99.5365 24.2586 98.0756 25.5842 95.2897 25.5842H90.1256V17.9403Z" fill="black"/>
<path d="M112.935 38.3585V29.9571H118.133C124.129 29.9571 127 26.9271 127 21.7623C127 16.5975 124.129 13.5675 118.133 13.5675H108.28V38.3585H112.935ZM112.935 17.9403H118.099C120.885 17.9403 122.346 19.266 122.346 21.7623C122.346 24.2586 120.885 25.5842 118.099 25.5842H112.935V17.9403Z" fill="black"/>
<path fill-rule="evenodd" clip-rule="evenodd" d="M74.1968 38.3742C74.1968 45.428 68.5547 51.1461 61.5947 51.1461L53.6119 51.1461L53.6119 46.3226L61.5947 46.3226C65.9261 46.3226 69.4374 42.764 69.4374 38.3742L74.1968 38.3742Z" fill="black"/>
<path fill-rule="evenodd" clip-rule="evenodd" d="M54.5338 4.96968C52.069 4.96968 50.0709 6.99469 50.0709 9.49266H45.3115C45.3115 4.33071 49.4405 0.146118 54.5338 0.146118H74.1952V9.92967H69.4358V4.96968H54.5338Z" fill="black"/>
<defs>
<linearGradient id="paint0_linear" x1="65.3342" y1="16.2444" x2="62.1339" y2="26.7306" gradientUnits="userSpaceOnUse">
<stop stop-color="#00C6FB"/>
<stop offset="1" stop-color="#005BEA"/>
</linearGradient>
</defs>
</svg>
