<svg width="42" height="42" viewBox="0 0 42 42" fill="none" xmlns="http://www.w3.org/2000/svg">
<rect width="42" height="42" rx="21" fill="white"/>
<path d="M28.9507 22C29.503 22 29.9507 21.5523 29.9507 21C29.9507 20.4477 29.503 20 28.9507 20V22ZM12.3425 20.2929C11.9519 20.6834 11.9519 21.3166 12.3425 21.7071L18.7064 28.0711C19.0969 28.4616 19.7301 28.4616 20.1206 28.0711C20.5112 27.6805 20.5112 27.0474 20.1206 26.6569L14.4638 21L20.1206 15.3431C20.5112 14.9526 20.5112 14.3195 20.1206 13.9289C19.7301 13.5384 19.0969 13.5384 18.7064 13.9289L12.3425 20.2929ZM28.9507 20L13.0496 20V22L28.9507 22V20Z" fill="black" fill-opacity="0.4"/>
</svg>
